<?xml version="1.0" encoding="UTF-8"?>
<svg id="Layer_1" xmlns="http://www.w3.org/2000/svg" version="1.1" viewBox="0 0 400 100">
  <!-- Generator: Adobe Illustrator 30.6.0, SVG Export Plug-In . SVG Version: 2.1.4 Build 109)  -->
  <defs>
    <style>
      .st0 {
        fill: none;
      }

      .st1 {
        fill: #ff1c24;
      }

      .st2 {
        fill: #111;
      }

      .st3 {
        fill: #2f139c;
      }

      .st4 {
        fill: #fff;
      }
    </style>
  </defs>
  <g>
    <path class="st2" d="M97.85,13.62l9.6-1.55v9.99h11.53v7.99h-11.53v11.92c0,2.02.35,3.63,1.06,4.83.71,1.2,2.14,1.8,4.28,1.8,1.03,0,2.09-.1,3.19-.29,1.09-.19,2.09-.46,3-.81l1.35,7.47c-1.16.47-2.45.88-3.87,1.22-1.42.34-3.16.52-5.22.52-2.62,0-4.79-.35-6.51-1.06-1.72-.71-3.09-1.7-4.12-2.96-1.03-1.27-1.75-2.8-2.16-4.61-.41-1.8-.61-3.8-.61-5.99V13.62Z"/>
    <path class="st2" d="M155.9,38.94c0,2.66-.39,5.1-1.16,7.31-.77,2.21-1.89,4.1-3.35,5.67-1.46,1.57-3.21,2.78-5.25,3.64-2.04.86-4.33,1.29-6.86,1.29s-4.76-.43-6.8-1.29c-2.04-.86-3.79-2.07-5.25-3.64-1.46-1.57-2.6-3.46-3.42-5.67-.82-2.21-1.22-4.65-1.22-7.31s.42-5.09,1.26-7.28,2-4.06,3.48-5.6c1.48-1.55,3.24-2.75,5.28-3.61,2.04-.86,4.26-1.29,6.67-1.29s4.69.43,6.73,1.29c2.04.86,3.79,2.06,5.25,3.61,1.46,1.55,2.6,3.41,3.41,5.6.82,2.19,1.22,4.62,1.22,7.28ZM146.11,38.94c0-2.96-.59-5.29-1.77-6.99-1.18-1.7-2.87-2.54-5.06-2.54s-3.89.85-5.09,2.54c-1.2,1.7-1.8,4.03-1.8,6.99s.6,5.31,1.8,7.05c1.2,1.74,2.9,2.61,5.09,2.61s3.88-.87,5.06-2.61c1.18-1.74,1.77-4.09,1.77-7.05Z"/>
    <path class="st2" d="M160.41,13.62l9.6-1.55v9.99h11.53v7.99h-11.53v11.92c0,2.02.35,3.63,1.06,4.83.71,1.2,2.14,1.8,4.28,1.8,1.03,0,2.09-.1,3.19-.29,1.09-.19,2.09-.46,3-.81l1.35,7.47c-1.16.47-2.45.88-3.87,1.22-1.42.34-3.16.52-5.22.52-2.62,0-4.79-.35-6.51-1.06-1.72-.71-3.09-1.7-4.12-2.96-1.03-1.27-1.75-2.8-2.16-4.61-.41-1.8-.61-3.8-.61-5.99V13.62Z"/>
    <path class="st2" d="M200.22,21.16c2.83,0,5.2.32,7.09.97,1.89.64,3.4,1.57,4.54,2.77,1.14,1.2,1.94,2.66,2.42,4.38.47,1.72.71,3.63.71,5.73v19.97c-1.38.3-3.29.66-5.73,1.06s-5.41.61-8.89.61c-2.19,0-4.18-.19-5.96-.58-1.78-.39-3.32-1.02-4.61-1.9-1.29-.88-2.28-2.03-2.96-3.45-.69-1.42-1.03-3.16-1.03-5.22s.4-3.65,1.19-5.03c.79-1.37,1.86-2.47,3.19-3.29,1.33-.82,2.86-1.41,4.57-1.77,1.72-.36,3.5-.55,5.35-.55,1.25,0,2.35.05,3.32.16.97.11,1.75.25,2.35.42v-.9c0-1.63-.49-2.94-1.48-3.93-.99-.99-2.71-1.48-5.15-1.48-1.63,0-3.24.12-4.83.35-1.59.24-2.96.57-4.12,1l-1.22-7.73c.56-.17,1.26-.35,2.09-.55.84-.19,1.75-.36,2.74-.52.99-.15,2.03-.28,3.12-.39,1.09-.11,2.2-.16,3.32-.16ZM200.99,49.24c.94,0,1.85-.02,2.71-.06.86-.04,1.55-.11,2.06-.19v-7.28c-.39-.09-.97-.17-1.74-.26-.77-.09-1.48-.13-2.13-.13-.9,0-1.75.05-2.54.16-.8.11-1.49.31-2.09.61-.6.3-1.07.71-1.42,1.22-.34.52-.51,1.16-.51,1.93,0,1.5.5,2.54,1.51,3.12,1.01.58,2.39.87,4.16.87Z"/>
    <path class="st2" d="M235.91,56.59c-2.79-.04-5.06-.34-6.8-.9s-3.11-1.34-4.12-2.35c-1.01-1.01-1.7-2.23-2.06-3.67-.37-1.44-.55-3.06-.55-4.86V7.5l9.6-1.55v36.92c0,.86.06,1.63.19,2.32.13.69.38,1.27.74,1.74.36.47.89.86,1.58,1.16.69.3,1.61.49,2.77.58l-1.35,7.92Z"/>
    <path class="st2" d="M250.21,12.59c0,.99-.3,1.77-.9,2.35-.6.58-1.33.87-2.19.87s-1.59-.29-2.19-.87c-.6-.58-.9-1.36-.9-2.35s.3-1.77.9-2.35c.6-.58,1.33-.87,2.19-.87s1.59.29,2.19.87c.6.58.9,1.36.9,2.35ZM249.25,55.94h-4.19V22.64h4.19v33.31Z"/>
    <path class="st2" d="M259.04,23.8c1.25-.34,2.87-.73,4.86-1.16,2-.43,4.58-.64,7.76-.64,4.21,0,7.26,1.22,9.15,3.67.21-.17.63-.46,1.26-.87.62-.41,1.41-.83,2.35-1.26.94-.43,2.05-.79,3.32-1.1,1.27-.3,2.67-.45,4.22-.45,2.53,0,4.58.38,6.15,1.13,1.57.75,2.78,1.8,3.64,3.16.86,1.35,1.44,2.97,1.74,4.86.3,1.89.45,3.95.45,6.18v18.62h-4.19v-17.27c0-2.19-.1-4.09-.29-5.7-.19-1.61-.58-2.94-1.16-3.99-.58-1.05-1.41-1.85-2.48-2.38-1.07-.54-2.47-.81-4.19-.81-1.29,0-2.46.12-3.51.35-1.05.24-1.96.53-2.74.87-.77.34-1.41.69-1.9,1.03-.49.34-.85.6-1.06.77.39,1.12.68,2.37.87,3.77.19,1.4.29,2.87.29,4.41v18.94h-4.19v-17.27c0-2.19-.1-4.09-.29-5.7-.19-1.61-.59-2.94-1.19-3.99-.6-1.05-1.45-1.85-2.54-2.38-1.1-.54-2.54-.81-4.35-.81-2.02,0-3.73.11-5.12.32-1.4.22-2.29.41-2.67.58v29.25h-4.19V23.8Z"/>
    <path class="st2" d="M322.18,21.86c2.19,0,4.05.31,5.57.93,1.52.62,2.76,1.48,3.71,2.58.94,1.1,1.63,2.4,2.06,3.9.43,1.5.64,3.14.64,4.9v21c-.43.13-1.05.27-1.87.42-.82.15-1.76.31-2.83.48-1.07.17-2.27.31-3.58.42-1.31.11-2.65.16-4.03.16-1.76,0-3.38-.19-4.86-.58-1.48-.39-2.77-1-3.87-1.84-1.1-.84-1.96-1.91-2.58-3.22-.62-1.31-.93-2.91-.93-4.8s.34-3.35,1.03-4.64c.69-1.29,1.65-2.35,2.9-3.19,1.25-.84,2.73-1.45,4.45-1.84,1.72-.39,3.58-.58,5.6-.58.6,0,1.23.03,1.9.1s1.31.15,1.93.26c.62.11,1.16.22,1.61.32.45.11.76.2.93.29v-2.06c0-1.16-.09-2.29-.26-3.38s-.55-2.08-1.13-2.96c-.58-.88-1.4-1.59-2.45-2.13-1.05-.54-2.44-.81-4.16-.81-2.45,0-4.27.17-5.48.52-1.2.34-2.08.62-2.64.84l-.58-3.67c.73-.34,1.86-.67,3.38-.97,1.52-.3,3.36-.45,5.51-.45ZM322.56,52.92c1.63,0,3.06-.05,4.28-.16,1.22-.11,2.26-.25,3.12-.42v-11.73c-.47-.21-1.22-.44-2.25-.68-1.03-.24-2.45-.35-4.25-.35-1.03,0-2.1.08-3.22.23-1.12.15-2.15.47-3.09.97-.95.49-1.72,1.17-2.32,2.03-.6.86-.9,2-.9,3.41,0,1.25.2,2.3.61,3.16.41.86.99,1.55,1.74,2.06.75.52,1.65.89,2.71,1.13,1.05.24,2.24.35,3.58.35Z"/>
    <path class="st2" d="M362.7,52.08c-.26.22-.64.46-1.16.74-.52.28-1.15.57-1.9.87-.75.3-1.61.55-2.58.74-.97.19-2.05.29-3.25.29-1.93,0-3.8-.3-5.61-.9-1.8-.6-3.38-1.55-4.74-2.83-1.35-1.29-2.44-2.95-3.25-4.99-.82-2.04-1.22-4.52-1.22-7.44,0-2.36.37-4.55,1.1-6.57.73-2.02,1.77-3.77,3.12-5.25,1.35-1.48,3.01-2.64,4.96-3.48,1.95-.84,4.16-1.26,6.6-1.26,3.09,0,5.57.2,7.44.61,1.87.41,3.4.81,4.61,1.19v30.41c0,4.98-1.29,8.54-3.87,10.66-2.58,2.13-6.46,3.19-11.66,3.19-2.15,0-4.09-.16-5.83-.48-1.74-.32-3.23-.7-4.48-1.13l.84-3.8c1.03.47,2.44.88,4.22,1.22,1.78.34,3.58.52,5.38.52,3.95,0,6.82-.76,8.6-2.29,1.78-1.52,2.67-4.13,2.67-7.83v-2.19ZM362.63,26.7c-.73-.21-1.68-.42-2.83-.61-1.16-.19-2.81-.29-4.96-.29-1.8,0-3.4.31-4.8.93-1.4.62-2.59,1.5-3.58,2.64-.99,1.14-1.74,2.49-2.25,4.06-.52,1.57-.77,3.3-.77,5.19,0,2.19.3,4.07.9,5.64.6,1.57,1.38,2.85,2.35,3.83.97.99,2.07,1.71,3.32,2.16,1.25.45,2.51.68,3.8.68,1.89,0,3.62-.28,5.19-.84,1.57-.56,2.78-1.2,3.64-1.93v-21.45Z"/>
    <path class="st2" d="M372.04,39.26c0-2.92.42-5.46,1.26-7.63.84-2.17,1.93-3.98,3.29-5.44,1.35-1.46,2.9-2.54,4.64-3.25,1.74-.71,3.53-1.06,5.38-1.06,4.08,0,7.33,1.33,9.76,3.99,2.43,2.66,3.64,6.76,3.64,12.3,0,.34-.01.69-.03,1.03-.02.34-.05.67-.1.97h-23.39c.13,4.08,1.14,7.22,3.03,9.41,1.89,2.19,4.9,3.29,9.02,3.29,2.28,0,4.08-.21,5.41-.64,1.33-.43,2.3-.79,2.9-1.1l.77,3.61c-.6.34-1.73.75-3.38,1.22s-3.6.71-5.83.71c-2.92,0-5.41-.43-7.47-1.29-2.06-.86-3.76-2.06-5.09-3.61-1.33-1.55-2.3-3.38-2.9-5.51-.6-2.13-.9-4.46-.9-6.99ZM395.68,36.62c-.09-3.48-.9-6.19-2.45-8.12-1.55-1.93-3.74-2.9-6.57-2.9-1.5,0-2.85.3-4.03.9-1.18.6-2.21,1.41-3.09,2.42-.88,1.01-1.57,2.18-2.06,3.51-.49,1.33-.78,2.73-.87,4.19h19.07Z"/>
    <path class="st2" d="M105,92.45c1.46,0,2.6-.27,3.41-.8s1.22-1.4,1.22-2.59c0-.69-.13-1.26-.39-1.72-.26-.46-.61-.85-1.04-1.17-.43-.32-.93-.59-1.49-.81-.56-.22-1.14-.46-1.76-.71-.78-.3-1.47-.62-2.08-.94-.61-.32-1.14-.69-1.57-1.09s-.76-.87-.99-1.39c-.23-.52-.34-1.14-.34-1.84,0-1.6.53-2.82,1.6-3.65,1.06-.83,2.54-1.24,4.44-1.24.5,0,1,.04,1.49.11.49.07.94.17,1.37.28s.81.25,1.16.39c.35.14.64.3.88.46l-.65,1.54c-.52-.36-1.16-.65-1.91-.87s-1.55-.32-2.42-.32c-.59,0-1.14.06-1.64.18-.5.12-.92.31-1.29.57-.36.26-.64.59-.85.99-.21.4-.31.87-.31,1.43s.11,1.06.32,1.46c.22.4.52.74.91,1.03.39.29.84.55,1.37.78.52.23,1.09.48,1.7.73.74.31,1.44.61,2.1.92.66.31,1.23.67,1.72,1.08.49.42.87.92,1.16,1.51.29.6.43,1.33.43,2.19,0,1.7-.59,2.97-1.77,3.81-1.18.85-2.78,1.27-4.8,1.27-.72,0-1.38-.05-1.97-.14-.59-.09-1.13-.2-1.6-.34-.47-.14-.87-.27-1.19-.42-.32-.14-.58-.27-.76-.38l.59-1.6c.18.11.42.23.73.38.31.14.67.28,1.08.42.41.14.88.25,1.41.34.52.09,1.1.14,1.73.14Z"/>
    <path class="st2" d="M128.2,94.05c-1.24,0-2.3-.19-3.18-.57-.88-.38-1.58-.9-2.12-1.57s-.93-1.45-1.18-2.34c-.24-.89-.37-1.85-.37-2.88v-11.79h1.84v11.55c0,1.03.12,1.92.37,2.66s.58,1.37,1.01,1.85c.43.49.96.85,1.57,1.08.61.23,1.3.35,2.06.35s1.44-.12,2.06-.35c.61-.23,1.14-.6,1.57-1.08s.77-1.1,1.01-1.85.37-1.64.37-2.66v-11.55h1.84v11.79c0,1.03-.12,1.99-.37,2.88-.24.89-.64,1.67-1.18,2.34-.54.67-1.25,1.19-2.12,1.57-.88.38-1.93.57-3.18.57Z"/>
    <path class="st2" d="M151.06,74.74c2.65,0,4.62.5,5.92,1.51,1.3,1.01,1.95,2.44,1.95,4.3,0,1.06-.19,1.97-.57,2.72s-.92,1.35-1.62,1.81-1.56.79-2.58,1c-1.02.21-2.17.31-3.45.31h-2.54v7.25h-1.84v-18.39c.65-.18,1.41-.31,2.29-.39.87-.08,1.69-.12,2.45-.12ZM151.14,76.33c-.69,0-1.27.02-1.75.07s-.89.09-1.23.12v8.28h2.33c.99,0,1.89-.06,2.69-.18.8-.12,1.49-.33,2.06-.65.57-.32,1-.75,1.31-1.31.31-.56.46-1.27.46-2.14s-.17-1.51-.5-2.06c-.33-.54-.78-.97-1.33-1.28-.55-.32-1.18-.54-1.88-.66-.7-.13-1.42-.19-2.16-.19Z"/>
    <path class="st2" d="M173.56,74.74c2.65,0,4.62.5,5.92,1.51,1.3,1.01,1.95,2.44,1.95,4.3,0,1.06-.19,1.97-.57,2.72s-.92,1.35-1.62,1.81-1.56.79-2.58,1c-1.02.21-2.17.31-3.45.31h-2.54v7.25h-1.84v-18.39c.65-.18,1.41-.31,2.29-.39.87-.08,1.69-.12,2.45-.12ZM173.65,76.33c-.69,0-1.27.02-1.75.07s-.89.09-1.23.12v8.28h2.33c.99,0,1.89-.06,2.69-.18.8-.12,1.49-.33,2.06-.65.57-.32,1-.75,1.31-1.31.31-.56.46-1.27.46-2.14s-.17-1.51-.5-2.06c-.33-.54-.78-.97-1.33-1.28-.55-.32-1.18-.54-1.88-.66-.7-.13-1.42-.19-2.16-.19Z"/>
    <path class="st2" d="M201.99,92.05v1.6h-10.66v-18.74h1.84v17.15h8.82Z"/>
    <path class="st2" d="M211.4,74.9h1.84v18.74h-1.84v-18.74Z"/>
    <path class="st2" d="M224.6,93.64v-18.74h10.82v1.6h-8.98v6.52h8.01v1.57h-8.01v7.47h9.68v1.6h-11.52Z"/>
    <path class="st2" d="M250.14,92.45c1.46,0,2.6-.27,3.41-.8s1.22-1.4,1.22-2.59c0-.69-.13-1.26-.39-1.72-.26-.46-.61-.85-1.04-1.17-.43-.32-.93-.59-1.49-.81-.56-.22-1.14-.46-1.76-.71-.78-.3-1.47-.62-2.08-.94-.61-.32-1.14-.69-1.57-1.09s-.76-.87-.99-1.39c-.23-.52-.34-1.14-.34-1.84,0-1.6.53-2.82,1.6-3.65,1.06-.83,2.54-1.24,4.44-1.24.5,0,1,.04,1.49.11.49.07.94.17,1.37.28s.81.25,1.16.39c.35.14.64.3.88.46l-.65,1.54c-.52-.36-1.16-.65-1.91-.87s-1.55-.32-2.42-.32c-.59,0-1.14.06-1.64.18-.5.12-.92.31-1.29.57-.36.26-.64.59-.85.99-.21.4-.31.87-.31,1.43s.11,1.06.32,1.46c.22.4.52.74.91,1.03.39.29.84.55,1.37.78.52.23,1.09.48,1.7.73.74.31,1.44.61,2.1.92.66.31,1.23.67,1.72,1.08.49.42.87.92,1.16,1.51.29.6.43,1.33.43,2.19,0,1.7-.59,2.97-1.77,3.81-1.18.85-2.78,1.27-4.8,1.27-.72,0-1.38-.05-1.97-.14-.59-.09-1.13-.2-1.6-.34-.47-.14-.87-.27-1.19-.42-.32-.14-.58-.27-.76-.38l.59-1.6c.18.11.42.23.73.38.31.14.67.28,1.08.42.41.14.88.25,1.41.34.52.09,1.1.14,1.73.14Z"/>
  </g>
  <g>
    <polygon class="st0" points="26.54 71.29 26.54 71.29 26.54 71.29 26.54 71.29"/>
    <path class="st0" d="M32.1,80.71s0,0,0,0c.18.1.38.18.56.27-.19-.09-.39-.17-.57-.27Z"/>
    <path class="st0" d="M26.8,72.98c.04.25.09.5.14.73.06.27.14.52.22.77,0,0,0,0,0,0-.07-.26-.16-.5-.22-.77-.05-.24-.09-.49-.14-.73Z"/>
    <path class="st0" d="M26.41,69.94s0,.04,0,.06c0-.02,0-.04,0-.06Z"/>
    <path class="st0" d="M26.33,67.76v-28.29l3.24-.5-.45.07-2.78.43v28.29c0,.28.01.55.02.82,0,0,0,0,0,0,0-.28-.02-.55-.02-.83Z"/>
    <path class="st0" d="M43.57,82.01s.02,0,.03,0h0s-.02,0-.03,0Z"/>
    <path class="st0" d="M41.4,82.23c.2-.01.39-.03.58-.04-.19.02-.38.03-.58.04Z"/>
    <path class="st0" d="M33.24,81.25c.33.13.68.25,1.05.36-.36-.11-.72-.22-1.05-.36Z"/>
    <polygon class="st0" points="36.37 47.85 36.37 47.85 36.37 46.49 36.37 45.51 36.37 42.19 36.37 41.81 36.37 37.93 35 38.14 36.37 37.93 36.37 47.85"/>
    <path class="st0" d="M40.9,82.26c-.41.02-.82.03-1.25.03,0,0,0,0-.01,0,0,0,0,0,.01,0,.44,0,.85-.01,1.25-.03Z"/>
    <path class="st0" d="M37.38,82.17s.01,0,.02,0c0,0-.01,0-.02,0Z"/>
    <path class="st0" d="M35.43,81.88c.06.01.11.03.17.04,0,0,0,0,0,0-.06-.01-.11-.03-.17-.04Z"/>
    <path class="st0" d="M38.15,73.26c-.13-.1-.24-.21-.35-.33.11.12.22.23.35.33Z"/>
    <path class="st0" d="M44.82,81.77h0c.55-.13,1.06-.28,1.57-.44-.51.15-1.02.3-1.57.44h0Z"/>
    <path class="st0" d="M44.35,73.93s.02,0,.03,0c0,0-.02,0-.03,0-.21.04-.4.07-.58.1-.19.03-.38.06-.55.08-.12.02-.24.03-.36.04.44-.05.88-.12,1.49-.23Z"/>
    <path class="st0" d="M47.32,73.13c-.09.03-.19.06-.29.09-.41.15-.83.28-1.28.4.55-.14,1.07-.3,1.56-.49Z"/>
    <rect class="st0" x="47.81" y="47.85" height="7.94"/>
    <path class="st0" d="M31.33,80.25s-.1-.06-.15-.09c.05.03.1.06.15.09Z"/>
    <path class="st0" d="M40.59,74.15c-.29-.04-.57-.08-.82-.14-.2-.05-.38-.1-.56-.17-.2-.07-.39-.16-.56-.25.53.29,1.18.48,1.94.57Z"/>
    <path class="st0" d="M38.65,73.59c-.17-.09-.32-.19-.46-.3.14.11.29.21.46.3Z"/>
    <path class="st0" d="M48.63,80.32l-.15-.83-.28-1.54.47,2.6c-.47.19-.98.37-1.5.54h0c.31-.1.6-.21.89-.32.2-.08.42-.14.62-.22l-.04-.24Z"/>
    <path class="st0" d="M37.39,72.36s.02.05.03.07c.09.16.2.31.32.44-.12-.14-.23-.28-.32-.44-.01-.02-.02-.04-.03-.07Z"/>
    <path class="st0" d="M36.37,67.63c0,1.57.22,2.88.66,3.96-.32-.81-.52-1.75-.6-2.84-.03-.36-.05-.72-.05-1.12v-11.84h0v11.84Z"/>
    <path class="st0" d="M42.46,74.19c-.07,0-.14,0-.21.01.07,0,.14,0,.21-.01Z"/>
    <path class="st0" d="M40.72,74.17c.3.03.62.05.96.05,0,0,.01,0,.02,0,0,0-.01,0-.02,0-.34,0-.66-.02-.96-.05Z"/>
    <path class="st0" d="M29.74,78.99c-.23-.23-.46-.46-.66-.71-.2-.24-.37-.51-.55-.77.17.27.35.53.55.77.2.25.43.48.66.71Z"/>
    <path class="st4" d="M44.82,81.77h0c.55-.13,1.06-.29,1.57-.44.26-.08.52-.16.77-.24.52-.17,1.03-.35,1.5-.54l-.47-2.6-.18-.99-.69-3.83c-.49.19-1.02.35-1.56.49-.44.12-.9.22-1.38.3,0,0-.02,0-.03,0-.6.11-1.04.18-1.49.23-.13.01-.26.03-.4.03-.07,0-.14,0-.21.01-.17,0-.35.01-.56.01,0,0-.01,0-.02,0-.34,0-.65-.02-.96-.05-.04,0-.08-.01-.13-.02-.77-.09-1.42-.28-1.94-.57,0,0,0,0,0,0-.16-.09-.32-.19-.46-.3-.01,0-.02-.02-.04-.03-.13-.1-.24-.21-.35-.33-.02-.02-.04-.04-.06-.06-.12-.14-.23-.28-.32-.44-.01-.02-.02-.04-.03-.07-.01-.03-.02-.05-.04-.08-.12-.22-.23-.45-.33-.7,0,0,0,0,0,0-.43-1.07-.66-2.39-.66-3.96v-11.84h11.44v-7.94h-11.44v-9.92l-1.37.21-.42.06-2.05.31-2.37.36-.59.09-3.24.5v28.29c0,.28.01.55.02.83.01.46.03.91.06,1.35,0,.02,0,.04,0,.06.03.44.07.87.12,1.29,0,0,0,0,0,0,.06.53.14,1.04.23,1.54,0,.05.02.09.03.14.05.24.09.5.14.73.06.27.14.52.22.77.25.85.57,1.63.97,2.35.13.23.27.46.41.68.17.26.35.53.55.77.2.25.43.48.66.71.21.2.42.39.65.57.25.21.51.4.79.59.05.03.1.06.15.09.25.16.5.32.77.47.18.1.38.18.57.27.17.08.33.17.51.24.02,0,.04.01.06.02.33.13.69.25,1.05.36.36.1.72.19,1.11.27.01,0,.03,0,.04,0,.06.01.11.03.17.04.56.11,1.15.19,1.77.25,0,0,.01,0,.02,0,.63.06,1.28.09,1.98.1.09,0,.16,0,.25,0,0,0,0,0,0,0,0,0,0,0,.01,0,.44,0,.85-.01,1.25-.03.17,0,.34-.02.5-.02.2-.01.39-.03.58-.04.49-.04.97-.09,1.42-.15.06,0,.11-.01.17-.02,0,0,.02,0,.03,0,.43-.07.84-.14,1.22-.24Z"/>
    <path class="st3" d="M54.5,95.84s.05.03.08.04l1.22-.65c-.13-.18-.23-.39-.3-.61-.16.53-.52.96-1,1.22Z"/>
    <path class="st3" d="M9.94,87.93c-.8-.86-1.55-1.76-2.27-2.7.71.94,1.47,1.84,2.27,2.7Z"/>
    <path class="st3" d="M19.5,94.62c-.07.22-.17.43-.3.61l1.22.65s.05-.03.08-.04c-.48-.26-.84-.69-1-1.22Z"/>
    <path class="st3" d="M16.95,91.98c-.72-.2-1.27-.77-1.45-1.5-.16.65-.62,1.19-1.24,1.43.46.37.93.72,1.41,1.07.27-.49.73-.85,1.28-1Z"/>
    <path class="st3" d="M74.99,62.12c-.06.77-.7,1.38-1.49,1.38-.83,0-1.5-.67-1.5-1.5s.67-1.5,1.5-1.5c.77,0,1.39.58,1.49,1.32-.02-1.08-.08-2.15-.19-3.2-.23.48-.72.82-1.29.82-.79,0-1.44-.64-1.44-1.44s.64-1.44,1.44-1.44c.44,0,.83.2,1.1.52-.09-.65-.2-1.3-.33-1.94-.22.15-.48.23-.76.23-.76,0-1.37-.61-1.37-1.37s.61-1.37,1.37-1.37c.06,0,.12,0,.17.02-.13-.46-.25-.93-.4-1.39-.61-.11-1.08-.62-1.08-1.26,0-.34.14-.63.34-.87-.8-2.09-1.8-4.09-2.95-5.98-.03,0-.06.02-.09.02-.65,0-1.17-.52-1.17-1.17,0-.21.07-.4.17-.57-.38-.55-.76-1.11-1.16-1.64h0l-21.73-28.98s-.07.02-.11.02c-.46,0-.84-.38-.84-.84,0-.12.03-.24.08-.35l-2.48-3.31c-.13.29-.42.49-.76.49-.46,0-.84-.38-.84-.84,0-.42.32-.76.73-.82l-3.89-5.18-4,5.33.11-.14c.41.06.73.39.73.82,0,.46-.38.84-.84.84-.34,0-.63-.2-.76-.49l-2.48,3.31c.05.11.08.22.08.35,0,.46-.38.84-.84.84-.04,0-.07-.02-.11-.02l-8.37,11.16.65-.86c.43.08.75.44.75.89,0,.51-.41.92-.92.92-.36,0-.66-.21-.81-.51l-10.9,14.53c.47.13.83.55.83,1.06,0,.62-.5,1.12-1.12,1.12-.4,0-.74-.22-.93-.54l.81-1.09-1.73,2.3h0c-.4.53-.79,1.08-1.17,1.63.1.17.17.36.17.58,0,.65-.52,1.17-1.17,1.17-.04,0-.07-.02-.11-.02-1.14,1.9-2.12,3.9-2.92,6,.2.23.34.52.34.85,0,.64-.47,1.15-1.08,1.26-.14.46-.27.92-.4,1.39.06,0,.11-.02.17-.02.76,0,1.37.61,1.37,1.37s-.61,1.37-1.37,1.37c-.28,0-.54-.09-.76-.23-.13.64-.24,1.29-.33,1.94.26-.31.65-.52,1.09-.52.79,0,1.44.64,1.44,1.44s-.64,1.44-1.44,1.44c-.57,0-1.06-.34-1.29-.82-.11,1.05-.17,2.12-.19,3.19.09-.74.72-1.31,1.48-1.31.83,0,1.5.67,1.5,1.5s-.67,1.5-1.5,1.5-1.43-.61-1.49-1.38c0,.13,0,.25,0,.38,0,.93.05,1.84.11,2.75.27-.5.79-.84,1.39-.84.88,0,1.58.71,1.58,1.58s-.71,1.58-1.58,1.58c-.49,0-.93-.23-1.22-.59.07.56.15,1.11.24,1.67.28-.2.61-.33.98-.33.92,0,1.66.74,1.66,1.66s-.75,1.66-1.66,1.66c-.13,0-.25-.02-.36-.05.06.22.1.45.16.67.07,0,.13-.02.2-.02.96,0,1.73.77,1.73,1.73,0,.65-.36,1.21-.89,1.5.16.44.34.88.52,1.32.25.29.41.64.44,1.04.38.85.8,1.69,1.24,2.5.28-.17.61-.27.97-.27,1.05,0,1.9.85,1.9,1.9,0,.68-.36,1.27-.9,1.61.38.55.76,1.09,1.17,1.62.3-.71,1.01-1.21,1.82-1.21,1.1,0,1.98.89,1.98,1.98,0,.94-.66,1.73-1.54,1.93.03.03.06.06.08.08.72.19,1.28.76,1.47,1.49,0,0,0,0,0,0,.2-.83.9-1.45,1.77-1.55-.99-.12-1.75-.94-1.75-1.96,0-1.1.89-1.98,1.98-1.98s1.98.89,1.98,1.98c0,1.02-.77,1.84-1.75,1.96.87.1,1.57.72,1.77,1.56.2-.83.9-1.46,1.77-1.56-.99-.12-1.75-.94-1.75-1.96,0-1.1.89-1.98,1.98-1.98s1.98.89,1.98,1.98c0,1.02-.77,1.84-1.75,1.96.87.1,1.57.72,1.77,1.56.2-.83.9-1.46,1.77-1.56-.99-.12-1.75-.94-1.75-1.96,0-1.1.89-1.98,1.98-1.98s1.98.89,1.98,1.98c0,1.02-.77,1.84-1.75,1.96.87.1,1.57.72,1.77,1.56.2-.83.9-1.46,1.77-1.56-.99-.12-1.75-.94-1.75-1.96,0-1.1.89-1.98,1.98-1.98s1.98.89,1.98,1.98c0,1.02-.77,1.84-1.75,1.96.87.1,1.57.72,1.77,1.56.2-.83.9-1.46,1.77-1.56-.99-.12-1.75-.94-1.75-1.96,0-1.1.89-1.98,1.98-1.98s1.98.89,1.98,1.98c0,1.02-.77,1.84-1.75,1.96.87.1,1.57.72,1.77,1.56.2-.83.9-1.46,1.77-1.56-.99-.12-1.75-.94-1.75-1.96,0-1.1.89-1.98,1.98-1.98s1.98.89,1.98,1.98c0,1.02-.77,1.84-1.75,1.96.87.1,1.57.72,1.77,1.56.2-.83.9-1.46,1.77-1.56-.99-.12-1.75-.94-1.75-1.96,0-1.1.89-1.98,1.98-1.98s1.98.89,1.98,1.98c0,1.02-.77,1.84-1.75,1.96.87.1,1.57.72,1.77,1.56.2-.83.9-1.46,1.77-1.56-.99-.12-1.75-.94-1.75-1.96,0-1.1.89-1.98,1.98-1.98s1.98.89,1.98,1.98c0,1.02-.77,1.84-1.75,1.96.87.1,1.57.72,1.77,1.56.2-.83.9-1.46,1.77-1.56-.99-.12-1.75-.94-1.75-1.96,0-1.1.89-1.98,1.98-1.98s1.98.89,1.98,1.98c0,1.02-.77,1.84-1.75,1.96.87.1,1.57.72,1.77,1.56.2-.83.9-1.46,1.77-1.56-.99-.12-1.75-.94-1.75-1.96,0-1.1.89-1.98,1.98-1.98s1.98.89,1.98,1.98c0,1.02-.77,1.84-1.75,1.96.87.1,1.57.72,1.77,1.56.2-.83.9-1.46,1.77-1.56-.99-.12-1.75-.94-1.75-1.96,0-1.1.89-1.98,1.98-1.98s1.98.89,1.98,1.98c0,1.02-.77,1.84-1.75,1.96.87.1,1.57.72,1.77,1.56.2-.83.9-1.46,1.77-1.56-.99-.12-1.75-.94-1.75-1.96,0-1.1.89-1.98,1.98-1.98s1.98.89,1.98,1.98c0,1.02-.77,1.84-1.75,1.96.87.1,1.57.72,1.77,1.56.2-.83.9-1.46,1.77-1.56-.99-.12-1.75-.94-1.75-1.96,0-1.1.89-1.98,1.98-1.98s1.98.89,1.98,1.98c0,1.02-.77,1.84-1.75,1.96.86.1,1.56.72,1.77,1.55,0,0,0,0,0,0,.18-.73.74-1.29,1.47-1.49.03-.03.06-.06.08-.08-.88-.2-1.54-.99-1.54-1.93,0-1.1.89-1.98,1.98-1.98.82,0,1.52.5,1.82,1.21.4-.53.79-1.07,1.17-1.62-.54-.34-.9-.93-.9-1.61,0-1.05.85-1.9,1.9-1.9.35,0,.68.1.97.27.44-.82.86-1.65,1.24-2.5.03-.4.19-.76.44-1.04.18-.44.35-.88.52-1.32-.53-.3-.89-.85-.89-1.5,0-.96.77-1.73,1.73-1.73.07,0,.13.01.2.02.06-.22.12-.45.18-.67-.12.03-.25.05-.38.05-.92,0-1.66-.74-1.66-1.66s.74-1.66,1.66-1.66c.37,0,.71.12.98.33.09-.55.17-1.11.24-1.67-.29.35-.73.58-1.22.58-.88,0-1.58-.71-1.58-1.58s.71-1.58,1.58-1.58c.6,0,1.12.34,1.39.84.07-.91.11-1.83.11-2.75,0-.13,0-.25,0-.38ZM5.5,44.76c.68,0,1.24.55,1.24,1.24s-.55,1.24-1.24,1.24-1.24-.55-1.24-1.24.55-1.24,1.24-1.24ZM5.5,48.7c.72,0,1.3.58,1.3,1.3s-.58,1.3-1.3,1.3-1.3-.58-1.3-1.3.58-1.3,1.3-1.3ZM5.5,52.63c.76,0,1.37.61,1.37,1.37s-.61,1.37-1.37,1.37-1.37-.61-1.37-1.37.61-1.37,1.37-1.37ZM5.5,56.56c.79,0,1.44.64,1.44,1.44s-.64,1.44-1.44,1.44-1.44-.64-1.44-1.44.64-1.44,1.44-1.44ZM5.5,60.5c.83,0,1.5.67,1.5,1.5s-.67,1.5-1.5,1.5-1.5-.67-1.5-1.5.67-1.5,1.5-1.5ZM5.5,64.42c.88,0,1.58.71,1.58,1.58s-.71,1.58-1.58,1.58-1.58-.71-1.58-1.58.71-1.58,1.58-1.58ZM5.5,68.34c.92,0,1.66.74,1.66,1.66s-.75,1.66-1.66,1.66-1.66-.74-1.66-1.66.74-1.66,1.66-1.66ZM5.5,72.27c.96,0,1.73.77,1.73,1.73s-.77,1.73-1.73,1.73-1.73-.77-1.73-1.73.77-1.73,1.73-1.73ZM5.5,79.81c-1,0-1.81-.81-1.81-1.81s.81-1.81,1.81-1.81,1.81.81,1.81,1.81-.81,1.81-1.81,1.81ZM9.5,40.83c.65,0,1.17.52,1.17,1.17s-.52,1.17-1.17,1.17-1.17-.52-1.17-1.17.52-1.17,1.17-1.17ZM9.5,44.76c.68,0,1.24.55,1.24,1.24s-.55,1.24-1.24,1.24-1.24-.55-1.24-1.24.55-1.24,1.24-1.24ZM9.5,48.7c.72,0,1.3.58,1.3,1.3s-.58,1.3-1.3,1.3-1.3-.58-1.3-1.3.58-1.3,1.3-1.3ZM9.5,52.63c.76,0,1.37.61,1.37,1.37s-.61,1.37-1.37,1.37-1.37-.61-1.37-1.37.61-1.37,1.37-1.37ZM9.5,56.56c.79,0,1.44.64,1.44,1.44s-.64,1.44-1.44,1.44-1.44-.64-1.44-1.44.64-1.44,1.44-1.44ZM9.5,60.5c.83,0,1.5.67,1.5,1.5s-.67,1.5-1.5,1.5-1.5-.67-1.5-1.5.67-1.5,1.5-1.5ZM9.5,64.42c.88,0,1.58.71,1.58,1.58s-.71,1.58-1.58,1.58-1.58-.71-1.58-1.58.71-1.58,1.58-1.58ZM9.5,68.34c.92,0,1.66.74,1.66,1.66s-.75,1.66-1.66,1.66-1.66-.74-1.66-1.66.74-1.66,1.66-1.66ZM9.5,72.27c.96,0,1.73.77,1.73,1.73s-.77,1.73-1.73,1.73-1.73-.77-1.73-1.73.77-1.73,1.73-1.73ZM9.5,76.19c1,0,1.81.81,1.81,1.81s-.81,1.81-1.81,1.81-1.81-.81-1.81-1.81.81-1.81,1.81-1.81ZM9.5,83.9c-1.05,0-1.9-.85-1.9-1.9s.85-1.9,1.9-1.9,1.9.85,1.9,1.9-.85,1.9-1.9,1.9ZM13.5,32.94c.59,0,1.06.48,1.06,1.06s-.48,1.06-1.06,1.06-1.06-.48-1.06-1.06.48-1.06,1.06-1.06ZM13.5,36.88c.62,0,1.12.5,1.12,1.12s-.5,1.12-1.12,1.12-1.12-.5-1.12-1.12.5-1.12,1.12-1.12ZM13.5,40.83c.65,0,1.17.52,1.17,1.17s-.52,1.17-1.17,1.17-1.17-.52-1.17-1.17.52-1.17,1.17-1.17ZM13.5,44.76c.68,0,1.24.55,1.24,1.24s-.55,1.24-1.24,1.24-1.24-.55-1.24-1.24.55-1.24,1.24-1.24ZM13.5,48.7c.72,0,1.3.58,1.3,1.3s-.58,1.3-1.3,1.3-1.3-.58-1.3-1.3.58-1.3,1.3-1.3ZM13.5,52.63c.76,0,1.37.61,1.37,1.37s-.61,1.37-1.37,1.37-1.37-.61-1.37-1.37.61-1.37,1.37-1.37ZM13.5,56.56c.79,0,1.44.64,1.44,1.44s-.64,1.44-1.44,1.44-1.44-.64-1.44-1.44.64-1.44,1.44-1.44ZM13.5,60.5c.83,0,1.5.67,1.5,1.5s-.67,1.5-1.5,1.5-1.5-.67-1.5-1.5.67-1.5,1.5-1.5ZM13.5,64.42c.88,0,1.58.71,1.58,1.58s-.71,1.58-1.58,1.58-1.58-.71-1.58-1.58.71-1.58,1.58-1.58ZM13.5,68.34c.92,0,1.66.74,1.66,1.66s-.75,1.66-1.66,1.66-1.66-.74-1.66-1.66.74-1.66,1.66-1.66ZM13.5,72.27c.96,0,1.73.77,1.73,1.73s-.77,1.73-1.73,1.73-1.73-.77-1.73-1.73.77-1.73,1.73-1.73ZM13.5,76.19c1,0,1.81.81,1.81,1.81s-.81,1.81-1.81,1.81-1.81-.81-1.81-1.81.81-1.81,1.81-1.81ZM13.5,83.9c-1.05,0-1.9-.85-1.9-1.9s.85-1.9,1.9-1.9,1.9.85,1.9,1.9-.85,1.9-1.9,1.9ZM18.33,25.55c.07.14.12.28.12.45,0,.53-.43.96-.96.96-.07,0-.13-.03-.19-.04l1.02-1.37ZM17.5,28.99c.56,0,1.01.45,1.01,1.01s-.45,1.01-1.01,1.01-1.01-.45-1.01-1.01.45-1.01,1.01-1.01ZM17.5,32.94c.59,0,1.06.48,1.06,1.06s-.48,1.06-1.06,1.06-1.06-.48-1.06-1.06.48-1.06,1.06-1.06ZM17.5,36.88c.62,0,1.12.5,1.12,1.12s-.5,1.12-1.12,1.12-1.12-.5-1.12-1.12.5-1.12,1.12-1.12ZM17.5,40.83c.65,0,1.17.52,1.17,1.17s-.52,1.17-1.17,1.17-1.17-.52-1.17-1.17.52-1.17,1.17-1.17ZM17.5,44.76c.68,0,1.24.55,1.24,1.24s-.55,1.24-1.24,1.24-1.24-.55-1.24-1.24.55-1.24,1.24-1.24ZM17.5,48.7c.72,0,1.3.58,1.3,1.3s-.58,1.3-1.3,1.3-1.3-.58-1.3-1.3.58-1.3,1.3-1.3ZM17.5,52.63c.76,0,1.37.61,1.37,1.37s-.61,1.37-1.37,1.37-1.37-.61-1.37-1.37.61-1.37,1.37-1.37ZM17.5,56.56c.79,0,1.44.64,1.44,1.44s-.64,1.44-1.44,1.44-1.44-.64-1.44-1.44.64-1.44,1.44-1.44ZM17.5,60.5c.83,0,1.5.67,1.5,1.5s-.67,1.5-1.5,1.5-1.5-.67-1.5-1.5.67-1.5,1.5-1.5ZM17.5,64.42c.88,0,1.58.71,1.58,1.58s-.71,1.58-1.58,1.58-1.58-.71-1.58-1.58.71-1.58,1.58-1.58ZM17.5,68.34c.92,0,1.66.74,1.66,1.66s-.75,1.66-1.66,1.66-1.66-.74-1.66-1.66.74-1.66,1.66-1.66ZM17.5,72.27c.96,0,1.73.77,1.73,1.73s-.77,1.73-1.73,1.73-1.73-.77-1.73-1.73.77-1.73,1.73-1.73ZM17.5,76.19c1,0,1.81.81,1.81,1.81s-.81,1.81-1.81,1.81-1.81-.81-1.81-1.81.81-1.81,1.81-1.81ZM17.5,83.9c-1.05,0-1.9-.85-1.9-1.9s.85-1.9,1.9-1.9,1.9.85,1.9,1.9-.85,1.9-1.9,1.9ZM21.5,25.04c.53,0,.96.43.96.96s-.43.96-.96.96-.96-.43-.96-.96.43-.96.96-.96ZM21.5,28.99c.56,0,1.01.45,1.01,1.01s-.45,1.01-1.01,1.01-1.01-.45-1.01-1.01.45-1.01,1.01-1.01ZM21.5,32.94c.59,0,1.06.48,1.06,1.06s-.48,1.06-1.06,1.06-1.06-.48-1.06-1.06.48-1.06,1.06-1.06ZM21.5,36.88c.62,0,1.12.5,1.12,1.12s-.5,1.12-1.12,1.12-1.12-.5-1.12-1.12.5-1.12,1.12-1.12ZM21.5,40.83c.65,0,1.17.52,1.17,1.17s-.52,1.17-1.17,1.17-1.17-.52-1.17-1.17.52-1.17,1.17-1.17ZM21.5,44.76c.68,0,1.24.55,1.24,1.24s-.55,1.24-1.24,1.24-1.24-.55-1.24-1.24.55-1.24,1.24-1.24ZM21.5,48.7c.72,0,1.3.58,1.3,1.3s-.58,1.3-1.3,1.3-1.3-.58-1.3-1.3.58-1.3,1.3-1.3ZM21.5,52.63c.76,0,1.37.61,1.37,1.37s-.61,1.37-1.37,1.37-1.37-.61-1.37-1.37.61-1.37,1.37-1.37ZM21.5,56.56c.79,0,1.44.64,1.44,1.44s-.64,1.44-1.44,1.44-1.44-.64-1.44-1.44.64-1.44,1.44-1.44ZM21.5,60.5c.83,0,1.5.67,1.5,1.5s-.67,1.5-1.5,1.5-1.5-.67-1.5-1.5.67-1.5,1.5-1.5ZM21.5,64.42c.88,0,1.58.71,1.58,1.58s-.71,1.58-1.58,1.58-1.58-.71-1.58-1.58.71-1.58,1.58-1.58ZM21.5,68.34c.92,0,1.66.74,1.66,1.66s-.75,1.66-1.66,1.66-1.66-.74-1.66-1.66.74-1.66,1.66-1.66ZM21.5,72.27c.96,0,1.73.77,1.73,1.73s-.77,1.73-1.73,1.73-1.73-.77-1.73-1.73.77-1.73,1.73-1.73ZM21.5,76.19c1,0,1.81.81,1.81,1.81s-.81,1.81-1.81,1.81-1.81-.81-1.81-1.81.81-1.81,1.81-1.81ZM21.5,83.9c-1.05,0-1.9-.85-1.9-1.9s.85-1.9,1.9-1.9,1.9.85,1.9,1.9-.85,1.9-1.9,1.9ZM45.5,60.5c.83,0,1.5.67,1.5,1.5s-.67,1.5-1.5,1.5-1.5-.67-1.5-1.5.67-1.5,1.5-1.5ZM44.06,58c0-.79.64-1.44,1.44-1.44s1.44.64,1.44,1.44-.64,1.44-1.44,1.44-1.44-.64-1.44-1.44ZM45.5,64.42c.88,0,1.58.71,1.58,1.58s-.71,1.58-1.58,1.58-1.58-.71-1.58-1.58.71-1.58,1.58-1.58ZM45.5,68.34c.92,0,1.66.74,1.66,1.66s-.75,1.66-1.66,1.66-1.66-.74-1.66-1.66.74-1.66,1.66-1.66ZM41.5,60.5c.83,0,1.5.67,1.5,1.5s-.67,1.5-1.5,1.5-1.5-.67-1.5-1.5.67-1.5,1.5-1.5ZM40.06,58c0-.79.64-1.44,1.44-1.44s1.44.64,1.44,1.44-.64,1.44-1.44,1.44-1.44-.64-1.44-1.44ZM41.5,64.42c.88,0,1.58.71,1.58,1.58s-.71,1.58-1.58,1.58-1.58-.71-1.58-1.58.71-1.58,1.58-1.58ZM41.5,68.34c.92,0,1.66.74,1.66,1.66s-.75,1.66-1.66,1.66-1.66-.74-1.66-1.66.74-1.66,1.66-1.66ZM49.5,72.27c.96,0,1.73.77,1.73,1.73s-.77,1.73-1.73,1.73-1.73-.77-1.73-1.73.77-1.73,1.73-1.73ZM49.5,17.12c.49,0,.88.39.88.88s-.39.88-.88.88-.88-.39-.88-.88.39-.88.88-.88ZM49.5,21.08c.51,0,.92.41.92.92s-.41.92-.92.92-.92-.41-.92-.92.41-.92.92-.92ZM49.5,25.04c.53,0,.96.43.96.96s-.43.96-.96.96-.96-.43-.96-.96.43-.96.96-.96ZM49.5,28.99c.56,0,1.01.45,1.01,1.01s-.45,1.01-1.01,1.01-1.01-.45-1.01-1.01.45-1.01,1.01-1.01ZM49.5,32.94c.59,0,1.06.48,1.06,1.06s-.48,1.06-1.06,1.06-1.06-.48-1.06-1.06.48-1.06,1.06-1.06ZM49.5,36.88c.62,0,1.12.5,1.12,1.12s-.5,1.12-1.12,1.12-1.12-.5-1.12-1.12.5-1.12,1.12-1.12ZM49.5,40.83c.65,0,1.17.52,1.17,1.17s-.52,1.17-1.17,1.17-1.17-.52-1.17-1.17.52-1.17,1.17-1.17ZM49.5,44.76c.68,0,1.24.55,1.24,1.24s-.55,1.24-1.24,1.24-1.24-.55-1.24-1.24.55-1.24,1.24-1.24ZM49.5,48.7c.72,0,1.3.58,1.3,1.3s-.58,1.3-1.3,1.3-1.3-.58-1.3-1.3.58-1.3,1.3-1.3ZM49.5,52.63c.76,0,1.37.61,1.37,1.37s-.61,1.37-1.37,1.37-1.37-.61-1.37-1.37.61-1.37,1.37-1.37ZM49.5,56.56c.79,0,1.44.64,1.44,1.44s-.64,1.44-1.44,1.44-1.44-.64-1.44-1.44.64-1.44,1.44-1.44ZM49.5,60.5c.83,0,1.5.67,1.5,1.5s-.67,1.5-1.5,1.5-1.5-.67-1.5-1.5.67-1.5,1.5-1.5ZM49.5,64.42c.88,0,1.58.71,1.58,1.58s-.71,1.58-1.58,1.58-1.58-.71-1.58-1.58.71-1.58,1.58-1.58ZM49.5,68.34c.92,0,1.66.74,1.66,1.66s-.75,1.66-1.66,1.66-1.66-.74-1.66-1.66.74-1.66,1.66-1.66ZM45.5,13.15c.47,0,.85.38.85.85s-.38.85-.85.85-.85-.38-.85-.85.38-.85.85-.85ZM45.5,17.12c.49,0,.88.39.88.88s-.39.88-.88.88-.88-.39-.88-.88.39-.88.88-.88ZM45.5,21.08c.51,0,.92.41.92.92s-.41.92-.92.92-.92-.41-.92-.92.41-.92.92-.92ZM45.5,25.04c.53,0,.96.43.96.96s-.43.96-.96.96-.96-.43-.96-.96.43-.96.96-.96ZM45.5,28.99c.56,0,1.01.45,1.01,1.01s-.45,1.01-1.01,1.01-1.01-.45-1.01-1.01.45-1.01,1.01-1.01ZM45.5,32.94c.59,0,1.06.48,1.06,1.06s-.48,1.06-1.06,1.06-1.06-.48-1.06-1.06.48-1.06,1.06-1.06ZM45.5,36.88c.62,0,1.12.5,1.12,1.12s-.5,1.12-1.12,1.12-1.12-.5-1.12-1.12.5-1.12,1.12-1.12ZM45.5,40.83c.65,0,1.17.52,1.17,1.17s-.52,1.17-1.17,1.17-1.17-.52-1.17-1.17.52-1.17,1.17-1.17ZM45.5,44.76c.68,0,1.24.55,1.24,1.24s-.55,1.24-1.24,1.24-1.24-.55-1.24-1.24.55-1.24,1.24-1.24ZM41.5,9.16c.46,0,.84.38.84.84s-.38.84-.84.84-.84-.38-.84-.84.38-.84.84-.84ZM41.5,13.15c.47,0,.85.38.85.85s-.38.85-.85.85-.85-.38-.85-.85.38-.85.85-.85ZM41.5,17.12c.49,0,.88.39.88.88s-.39.88-.88.88-.88-.39-.88-.88.39-.88.88-.88ZM41.5,21.08c.51,0,.92.41.92.92s-.41.92-.92.92-.92-.41-.92-.92.41-.92.92-.92ZM41.5,25.04c.53,0,.96.43.96.96s-.43.96-.96.96-.96-.43-.96-.96.43-.96.96-.96ZM41.5,28.99c.56,0,1.01.45,1.01,1.01s-.45,1.01-1.01,1.01-1.01-.45-1.01-1.01.45-1.01,1.01-1.01ZM41.5,32.94c.59,0,1.06.48,1.06,1.06s-.48,1.06-1.06,1.06-1.06-.48-1.06-1.06.48-1.06,1.06-1.06ZM41.5,36.88c.62,0,1.12.5,1.12,1.12s-.5,1.12-1.12,1.12-1.12-.5-1.12-1.12.5-1.12,1.12-1.12ZM41.5,40.83c.65,0,1.17.52,1.17,1.17s-.52,1.17-1.17,1.17-1.17-.52-1.17-1.17.52-1.17,1.17-1.17ZM41.5,44.76c.68,0,1.24.55,1.24,1.24s-.55,1.24-1.24,1.24-1.24-.55-1.24-1.24.55-1.24,1.24-1.24ZM37.5,1.16c.46,0,.84.38.84.84s-.38.84-.84.84-.84-.38-.84-.84.38-.84.84-.84ZM37.5,5.16c.46,0,.84.38.84.84s-.38.84-.84.84-.84-.38-.84-.84.38-.84.84-.84ZM37.5,9.16c.46,0,.84.38.84.84s-.38.84-.84.84-.84-.38-.84-.84.38-.84.84-.84ZM37.5,13.15c.47,0,.85.38.85.85s-.38.85-.85.85-.85-.38-.85-.85.38-.85.85-.85ZM37.5,17.12c.49,0,.88.39.88.88s-.39.88-.88.88-.88-.39-.88-.88.39-.88.88-.88ZM37.5,21.08c.51,0,.92.41.92.92s-.41.92-.92.92-.92-.41-.92-.92.41-.92.92-.92ZM37.5,25.04c.53,0,.96.43.96.96s-.43.96-.96.96-.96-.43-.96-.96.43-.96.96-.96ZM37.5,28.99c.56,0,1.01.45,1.01,1.01s-.45,1.01-1.01,1.01-1.01-.45-1.01-1.01.45-1.01,1.01-1.01ZM37.5,32.94c.59,0,1.06.48,1.06,1.06s-.48,1.06-1.06,1.06-1.06-.48-1.06-1.06.48-1.06,1.06-1.06ZM37.5,36.88c.62,0,1.12.5,1.12,1.12s-.5,1.12-1.12,1.12-1.12-.5-1.12-1.12.5-1.12,1.12-1.12ZM33.5,9.16c.46,0,.84.38.84.84s-.38.84-.84.84-.84-.38-.84-.84.38-.84.84-.84ZM33.5,13.15c.47,0,.85.38.85.85s-.38.85-.85.85-.85-.38-.85-.85.38-.85.85-.85ZM33.5,17.12c.49,0,.88.39.88.88s-.39.88-.88.88-.88-.39-.88-.88.39-.88.88-.88ZM33.5,21.08c.51,0,.92.41.92.92s-.41.92-.92.92-.92-.41-.92-.92.41-.92.92-.92ZM33.5,25.04c.53,0,.96.43.96.96s-.43.96-.96.96-.96-.43-.96-.96.43-.96.96-.96ZM33.5,28.99c.56,0,1.01.45,1.01,1.01s-.45,1.01-1.01,1.01-1.01-.45-1.01-1.01.45-1.01,1.01-1.01ZM33.5,32.94c.59,0,1.06.48,1.06,1.06s-.48,1.06-1.06,1.06-1.06-.48-1.06-1.06.48-1.06,1.06-1.06ZM29.5,13.15c.47,0,.85.38.85.85s-.38.85-.85.85-.85-.38-.85-.85.38-.85.85-.85ZM29.5,17.12c.49,0,.88.39.88.88s-.39.88-.88.88-.88-.39-.88-.88.39-.88.88-.88ZM29.5,21.08c.51,0,.92.41.92.92s-.41.92-.92.92-.92-.41-.92-.92.41-.92.92-.92ZM29.5,25.04c.53,0,.96.43.96.96s-.43.96-.96.96-.96-.43-.96-.96.43-.96.96-.96ZM29.5,28.99c.56,0,1.01.45,1.01,1.01s-.45,1.01-1.01,1.01-1.01-.45-1.01-1.01.45-1.01,1.01-1.01ZM29.5,32.94c.59,0,1.06.48,1.06,1.06s-.48,1.06-1.06,1.06-1.06-.48-1.06-1.06.48-1.06,1.06-1.06ZM25.5,17.12c.49,0,.88.39.88.88s-.39.88-.88.88-.88-.39-.88-.88.39-.88.88-.88ZM25.5,21.08c.51,0,.92.41.92.92s-.41.92-.92.92-.92-.41-.92-.92.41-.92.92-.92ZM25.5,25.04c.53,0,.96.43.96.96s-.43.96-.96.96-.96-.43-.96-.96.43-.96.96-.96ZM25.5,28.99c.56,0,1.01.45,1.01,1.01s-.45,1.01-1.01,1.01-1.01-.45-1.01-1.01.45-1.01,1.01-1.01ZM25.5,32.94c.59,0,1.06.48,1.06,1.06s-.48,1.06-1.06,1.06-1.06-.48-1.06-1.06.48-1.06,1.06-1.06ZM25.5,36.88c.62,0,1.12.5,1.12,1.12s-.5,1.12-1.12,1.12-1.12-.5-1.12-1.12.5-1.12,1.12-1.12ZM25.5,83.9c-1.05,0-1.9-.85-1.9-1.9s.85-1.9,1.9-1.9,1.9.85,1.9,1.9-.85,1.9-1.9,1.9ZM23.69,78c0-1,.81-1.81,1.81-1.81s1.81.81,1.81,1.81-.81,1.81-1.81,1.81-1.81-.81-1.81-1.81ZM29.5,83.9c-1.05,0-1.9-.85-1.9-1.9s.85-1.9,1.9-1.9,1.9.85,1.9,1.9-.85,1.9-1.9,1.9ZM49.5,83.9c-1.05,0-1.9-.85-1.9-1.9,0-.47.18-.89.46-1.22-.29.11-.58.22-.89.32.15.27.24.57.24.9,0,1.05-.85,1.9-1.9,1.9s-1.9-.85-1.9-1.89c0,0-.02,0-.03,0-.06,0-.11.01-.17.02-.02,1.03-.86,1.87-1.9,1.87-.95,0-1.74-.7-1.88-1.62-.09,0-.16,0-.25,0-.13.92-.92,1.63-1.88,1.63-1.05,0-1.9-.85-1.9-1.9,0-.03,0-.05,0-.08-.06-.01-.11-.02-.17-.04-.01,0-.03,0-.04,0,0,.04.01.08.01.13,0,1.05-.85,1.9-1.9,1.9s-1.9-.85-1.9-1.9c0-.5.19-.95.51-1.28,0,0,0,0,0,0-.27-.14-.52-.3-.77-.47-.05-.03-.1-.06-.15-.09-.27-.19-.54-.38-.79-.59-.26.15-.57.24-.89.24-1,0-1.81-.81-1.81-1.81,0-.45.17-.85.44-1.17-.4-.72-.72-1.5-.97-2.35,0,0,0,0,0,0-.21.72-.87,1.25-1.65,1.25-.96,0-1.73-.77-1.73-1.73s.77-1.73,1.73-1.73c.5,0,.95.22,1.27.56-.09-.5-.17-1.01-.23-1.54,0,0,0,0,0,0-.29.23-.64.37-1.04.37-.92,0-1.66-.74-1.66-1.66s.74-1.66,1.66-1.66c.31,0,.6.09.85.24,0-.27-.02-.54-.02-.82v-.41c-.24.15-.53.24-.83.24-.88,0-1.58-.71-1.58-1.58s.71-1.58,1.58-1.58c.31,0,.59.09.83.24v-1.41c-.24.16-.52.25-.83.25-.83,0-1.5-.67-1.5-1.5s.67-1.5,1.5-1.5c.31,0,.59.09.83.25v-1.58c-.23.17-.52.27-.83.27-.79,0-1.44-.64-1.44-1.44s.64-1.44,1.44-1.44c.31,0,.6.1.83.27v-1.75c-.23.18-.52.29-.83.29-.76,0-1.37-.61-1.37-1.37s.61-1.37,1.37-1.37c.31,0,.6.11.83.29v-1.93c-.23.19-.51.32-.83.32-.72,0-1.3-.58-1.3-1.3s.58-1.3,1.3-1.3c.32,0,.6.13.83.32v-2.11c-.22.2-.51.33-.83.33-.68,0-1.24-.55-1.24-1.24s.55-1.24,1.24-1.24c.32,0,.61.13.83.33v-2.27c-.21.21-.51.35-.83.35-.65,0-1.17-.52-1.17-1.17s.52-1.17,1.17-1.17c.33,0,.62.13.83.35v-1.71l2.78-.43c-.43-.16-.73-.56-.73-1.04,0-.62.5-1.12,1.12-1.12s1.12.5,1.12,1.12c0,.37-.19.68-.46.88l2.37-.36c-.08-.16-.14-.33-.14-.52,0-.62.5-1.12,1.12-1.12s1.12.5,1.12,1.12c0,.07-.03.14-.04.21l.42-.06,1.37-.21v3.88c.1-.55.55-.98,1.13-.98.65,0,1.17.52,1.17,1.17s-.52,1.17-1.17,1.17c-.58,0-1.04-.43-1.13-.98v3.31c.19-.44.62-.74,1.13-.74.68,0,1.24.55,1.24,1.24s-.55,1.24-1.24,1.24c-.51,0-.94-.31-1.13-.74v1.36h11.44v7.94h-11.44v1.34c.26-.34.67-.56,1.13-.56.79,0,1.44.64,1.44,1.44s-.64,1.44-1.44,1.44c-.46,0-.87-.22-1.13-.56v2.14c.28-.32.68-.52,1.13-.52.83,0,1.5.67,1.5,1.5s-.67,1.5-1.5,1.5c-.45,0-.86-.21-1.13-.52v1.91c.29-.29.69-.48,1.13-.48.88,0,1.58.71,1.58,1.58s-.71,1.58-1.58,1.58c-.44,0-.84-.18-1.13-.48v.52c0,.39.02.76.05,1.12.29-.25.67-.41,1.08-.41.92,0,1.66.74,1.66,1.66s-.75,1.66-1.66,1.66c-.17,0-.32-.03-.48-.08.1.25.21.48.33.7.05,0,.1-.01.14-.01.9,0,1.63.69,1.71,1.57.18.06.36.12.56.17,0,0,0,0,0,0,0-.96.77-1.73,1.73-1.73s1.73.77,1.73,1.73c0,.04,0,.08-.01.11.17-.02.36-.05.55-.08,0-.01,0-.02,0-.03,0-.96.77-1.73,1.73-1.73.67,0,1.25.39,1.54.95.09-.03.2-.06.29-.09l.69,3.83c.33-.47.87-.77,1.48-.77,1,0,1.81.81,1.81,1.81s-.81,1.81-1.81,1.81c-.38,0-.73-.12-1.02-.32l.15.83c.26-.14.56-.22.87-.22,1.05,0,1.9.85,1.9,1.9s-.85,1.9-1.9,1.9ZM53.34,21.11l.97,1.3c-.15.3-.45.51-.81.51-.51,0-.92-.41-.92-.92,0-.45.33-.81.75-.89ZM53.5,25.04c.53,0,.96.43.96.96s-.43.96-.96.96-.96-.43-.96-.96.43-.96.96-.96ZM53.5,28.99c.56,0,1.01.45,1.01,1.01s-.45,1.01-1.01,1.01-1.01-.45-1.01-1.01.45-1.01,1.01-1.01ZM53.5,32.94c.59,0,1.06.48,1.06,1.06s-.48,1.06-1.06,1.06-1.06-.48-1.06-1.06.48-1.06,1.06-1.06ZM53.5,36.88c.62,0,1.12.5,1.12,1.12s-.5,1.12-1.12,1.12-1.12-.5-1.12-1.12.5-1.12,1.12-1.12ZM53.5,40.83c.65,0,1.17.52,1.17,1.17s-.52,1.17-1.17,1.17-1.17-.52-1.17-1.17.52-1.17,1.17-1.17ZM53.5,44.76c.68,0,1.24.55,1.24,1.24s-.55,1.24-1.24,1.24-1.24-.55-1.24-1.24.55-1.24,1.24-1.24ZM53.5,48.7c.72,0,1.3.58,1.3,1.3s-.58,1.3-1.3,1.3-1.3-.58-1.3-1.3.58-1.3,1.3-1.3ZM53.5,52.63c.76,0,1.37.61,1.37,1.37s-.61,1.37-1.37,1.37-1.37-.61-1.37-1.37.61-1.37,1.37-1.37ZM53.5,56.56c.79,0,1.44.64,1.44,1.44s-.64,1.44-1.44,1.44-1.44-.64-1.44-1.44.64-1.44,1.44-1.44ZM53.5,60.5c.83,0,1.5.67,1.5,1.5s-.67,1.5-1.5,1.5-1.5-.67-1.5-1.5.67-1.5,1.5-1.5ZM53.5,64.42c.88,0,1.58.71,1.58,1.58s-.71,1.58-1.58,1.58-1.58-.71-1.58-1.58.71-1.58,1.58-1.58ZM53.5,68.34c.92,0,1.66.74,1.66,1.66s-.75,1.66-1.66,1.66-1.66-.74-1.66-1.66.74-1.66,1.66-1.66ZM53.5,72.27c.96,0,1.73.77,1.73,1.73s-.77,1.73-1.73,1.73-1.73-.77-1.73-1.73.77-1.73,1.73-1.73ZM53.5,76.19c1,0,1.81.81,1.81,1.81s-.81,1.81-1.81,1.81-1.81-.81-1.81-1.81.81-1.81,1.81-1.81ZM53.5,83.9c-1.05,0-1.9-.85-1.9-1.9s.85-1.9,1.9-1.9,1.9.85,1.9,1.9-.85,1.9-1.9,1.9ZM56.67,25.55l1.02,1.37c-.06.01-.12.04-.19.04-.53,0-.96-.43-.96-.96,0-.16.05-.31.12-.45ZM57.5,28.99c.56,0,1.01.45,1.01,1.01s-.45,1.01-1.01,1.01-1.01-.45-1.01-1.01.45-1.01,1.01-1.01ZM57.5,32.94c.59,0,1.06.48,1.06,1.06s-.48,1.06-1.06,1.06-1.06-.48-1.06-1.06.48-1.06,1.06-1.06ZM57.5,36.88c.62,0,1.12.5,1.12,1.12s-.5,1.12-1.12,1.12-1.12-.5-1.12-1.12.5-1.12,1.12-1.12ZM57.5,40.83c.65,0,1.17.52,1.17,1.17s-.52,1.17-1.17,1.17-1.17-.52-1.17-1.17.52-1.17,1.17-1.17ZM57.5,44.76c.68,0,1.24.55,1.24,1.24s-.55,1.24-1.24,1.24-1.24-.55-1.24-1.24.55-1.24,1.24-1.24ZM57.5,48.7c.72,0,1.3.58,1.3,1.3s-.58,1.3-1.3,1.3-1.3-.58-1.3-1.3.58-1.3,1.3-1.3ZM57.5,52.63c.76,0,1.37.61,1.37,1.37s-.61,1.37-1.37,1.37-1.37-.61-1.37-1.37.61-1.37,1.37-1.37ZM57.5,56.56c.79,0,1.44.64,1.44,1.44s-.64,1.44-1.44,1.44-1.44-.64-1.44-1.44.64-1.44,1.44-1.44ZM57.5,60.5c.83,0,1.5.67,1.5,1.5s-.67,1.5-1.5,1.5-1.5-.67-1.5-1.5.67-1.5,1.5-1.5ZM57.5,64.42c.88,0,1.58.71,1.58,1.58s-.71,1.58-1.58,1.58-1.58-.71-1.58-1.58.71-1.58,1.58-1.58ZM57.5,68.34c.92,0,1.66.74,1.66,1.66s-.75,1.66-1.66,1.66-1.66-.74-1.66-1.66.74-1.66,1.66-1.66ZM57.5,72.27c.96,0,1.73.77,1.73,1.73s-.77,1.73-1.73,1.73-1.73-.77-1.73-1.73.77-1.73,1.73-1.73ZM57.5,76.19c1,0,1.81.81,1.81,1.81s-.81,1.81-1.81,1.81-1.81-.81-1.81-1.81.81-1.81,1.81-1.81ZM57.5,83.9c-1.05,0-1.9-.85-1.9-1.9s.85-1.9,1.9-1.9,1.9.85,1.9,1.9-.85,1.9-1.9,1.9ZM61.5,32.94c.59,0,1.06.48,1.06,1.06s-.48,1.06-1.06,1.06-1.06-.48-1.06-1.06.48-1.06,1.06-1.06ZM61.5,36.88c.62,0,1.12.5,1.12,1.12s-.5,1.12-1.12,1.12-1.12-.5-1.12-1.12.5-1.12,1.12-1.12ZM61.5,40.83c.65,0,1.17.52,1.17,1.17s-.52,1.17-1.17,1.17-1.17-.52-1.17-1.17.52-1.17,1.17-1.17ZM61.5,44.76c.68,0,1.24.55,1.24,1.24s-.55,1.24-1.24,1.24-1.24-.55-1.24-1.24.55-1.24,1.24-1.24ZM61.5,48.7c.72,0,1.3.58,1.3,1.3s-.58,1.3-1.3,1.3-1.3-.58-1.3-1.3.58-1.3,1.3-1.3ZM61.5,52.63c.76,0,1.37.61,1.37,1.37s-.61,1.37-1.37,1.37-1.37-.61-1.37-1.37.61-1.37,1.37-1.37ZM61.5,56.56c.79,0,1.44.64,1.44,1.44s-.64,1.44-1.44,1.44-1.44-.64-1.44-1.44.64-1.44,1.44-1.44ZM61.5,60.5c.83,0,1.5.67,1.5,1.5s-.67,1.5-1.5,1.5-1.5-.67-1.5-1.5.67-1.5,1.5-1.5ZM61.5,64.42c.88,0,1.58.71,1.58,1.58s-.71,1.58-1.58,1.58-1.58-.71-1.58-1.58.71-1.58,1.58-1.58ZM61.5,68.34c.92,0,1.66.74,1.66,1.66s-.75,1.66-1.66,1.66-1.66-.74-1.66-1.66.74-1.66,1.66-1.66ZM61.5,72.27c.96,0,1.73.77,1.73,1.73s-.77,1.73-1.73,1.73-1.73-.77-1.73-1.73.77-1.73,1.73-1.73ZM61.5,76.19c1,0,1.81.81,1.81,1.81s-.81,1.81-1.81,1.81-1.81-.81-1.81-1.81.81-1.81,1.81-1.81ZM61.5,83.9c-1.05,0-1.9-.85-1.9-1.9s.85-1.9,1.9-1.9,1.9.85,1.9,1.9-.85,1.9-1.9,1.9ZM65.21,36.94l1.23,1.64c-.2.32-.53.54-.93.54-.62,0-1.12-.5-1.12-1.12,0-.51.35-.93.82-1.06ZM65.5,40.83c.65,0,1.17.52,1.17,1.17s-.52,1.17-1.17,1.17-1.17-.52-1.17-1.17.52-1.17,1.17-1.17ZM65.5,44.76c.68,0,1.24.55,1.24,1.24s-.55,1.24-1.24,1.24-1.24-.55-1.24-1.24.55-1.24,1.24-1.24ZM65.5,48.7c.72,0,1.3.58,1.3,1.3s-.58,1.3-1.3,1.3-1.3-.58-1.3-1.3.58-1.3,1.3-1.3ZM65.5,52.63c.76,0,1.37.61,1.37,1.37s-.61,1.37-1.37,1.37-1.37-.61-1.37-1.37.61-1.37,1.37-1.37ZM65.5,56.56c.79,0,1.44.64,1.44,1.44s-.64,1.44-1.44,1.44-1.44-.64-1.44-1.44.64-1.44,1.44-1.44ZM65.5,60.5c.83,0,1.5.67,1.5,1.5s-.67,1.5-1.5,1.5-1.5-.67-1.5-1.5.67-1.5,1.5-1.5ZM65.5,64.42c.88,0,1.58.71,1.58,1.58s-.71,1.58-1.58,1.58-1.58-.71-1.58-1.58.71-1.58,1.58-1.58ZM65.5,68.34c.92,0,1.66.74,1.66,1.66s-.75,1.66-1.66,1.66-1.66-.74-1.66-1.66.74-1.66,1.66-1.66ZM65.5,72.27c.96,0,1.73.77,1.73,1.73s-.77,1.73-1.73,1.73-1.73-.77-1.73-1.73.77-1.73,1.73-1.73ZM65.5,76.19c1,0,1.81.81,1.81,1.81s-.81,1.81-1.81,1.81-1.81-.81-1.81-1.81.81-1.81,1.81-1.81ZM65.5,83.9c-1.05,0-1.9-.85-1.9-1.9s.85-1.9,1.9-1.9,1.9.85,1.9,1.9-.85,1.9-1.9,1.9ZM69.5,44.76c.68,0,1.24.55,1.24,1.24s-.55,1.24-1.24,1.24-1.24-.55-1.24-1.24.55-1.24,1.24-1.24ZM69.5,48.7c.72,0,1.3.58,1.3,1.3s-.58,1.3-1.3,1.3-1.3-.58-1.3-1.3.58-1.3,1.3-1.3ZM69.5,52.63c.76,0,1.37.61,1.37,1.37s-.61,1.37-1.37,1.37-1.37-.61-1.37-1.37.61-1.37,1.37-1.37ZM69.5,56.56c.79,0,1.44.64,1.44,1.44s-.64,1.44-1.44,1.44-1.44-.64-1.44-1.44.64-1.44,1.44-1.44ZM69.5,60.5c.83,0,1.5.67,1.5,1.5s-.67,1.5-1.5,1.5-1.5-.67-1.5-1.5.67-1.5,1.5-1.5ZM69.5,64.42c.88,0,1.58.71,1.58,1.58s-.71,1.58-1.58,1.58-1.58-.71-1.58-1.58.71-1.58,1.58-1.58ZM69.5,68.34c.92,0,1.66.74,1.66,1.66s-.75,1.66-1.66,1.66-1.66-.74-1.66-1.66.74-1.66,1.66-1.66ZM69.5,72.27c.96,0,1.73.77,1.73,1.73s-.77,1.73-1.73,1.73-1.73-.77-1.73-1.73.77-1.73,1.73-1.73ZM69.5,79.81c-1,0-1.81-.81-1.81-1.81s.81-1.81,1.81-1.81,1.81.81,1.81,1.81-.81,1.81-1.81,1.81Z"/>
    <path class="st3" d="M59.5,90.48c-.18.73-.73,1.3-1.45,1.5.55.15,1.01.52,1.28,1,.48-.34.95-.7,1.41-1.07-.62-.24-1.08-.78-1.24-1.43Z"/>
    <path class="st3" d="M35.5,94.62c-.16.53-.53.97-1.01,1.23.41.19.77.48,1.01.86.25-.38.6-.67,1.01-.86-.48-.26-.85-.7-1.01-1.23Z"/>
    <path class="st3" d="M39.5,94.62c-.16.53-.53.97-1.01,1.23.41.19.77.48,1.01.86.25-.38.6-.67,1.01-.86-.48-.26-.85-.7-1.01-1.23Z"/>
    <path class="st3" d="M31.5,94.62c-.16.53-.53.97-1.01,1.23.41.19.77.48,1.01.86.25-.38.6-.67,1.01-.86-.48-.26-.85-.7-1.01-1.23Z"/>
    <path class="st3" d="M43.5,94.62c-.16.53-.53.97-1.01,1.23.41.19.77.48,1.01.86.25-.38.6-.67,1.01-.86-.48-.26-.85-.7-1.01-1.23Z"/>
    <path class="st3" d="M55.5,90.48c-.18.73-.73,1.3-1.45,1.5.69.19,1.24.72,1.45,1.4.21-.68.76-1.21,1.45-1.4-.72-.2-1.27-.77-1.45-1.5Z"/>
    <path class="st3" d="M51.5,90.48c-.18.73-.73,1.3-1.45,1.5.69.19,1.24.72,1.45,1.4.21-.68.76-1.21,1.45-1.4-.72-.2-1.27-.77-1.45-1.5Z"/>
    <path class="st3" d="M27.5,94.62c-.16.53-.53.97-1.01,1.23.41.19.77.48,1.01.86.25-.38.6-.67,1.01-.86-.48-.26-.85-.7-1.01-1.23Z"/>
    <path class="st3" d="M51.5,94.62c-.16.53-.53.97-1.01,1.23.41.19.77.48,1.01.86.25-.38.6-.67,1.01-.86-.48-.26-.85-.7-1.01-1.23Z"/>
    <path class="st3" d="M47.5,94.62c-.16.53-.53.97-1.01,1.23.41.19.77.48,1.01.86.25-.38.6-.67,1.01-.86-.48-.26-.85-.7-1.01-1.23Z"/>
    <path class="st3" d="M19.5,90.48c-.18.73-.73,1.3-1.45,1.5.69.19,1.24.72,1.45,1.4.21-.68.76-1.21,1.45-1.4-.72-.2-1.27-.77-1.45-1.5Z"/>
    <path class="st3" d="M47.5,90.48c-.18.73-.73,1.3-1.45,1.5.69.19,1.24.72,1.45,1.4.21-.68.76-1.21,1.45-1.4-.72-.2-1.27-.77-1.45-1.5Z"/>
    <path class="st3" d="M43.5,90.48c-.18.73-.73,1.3-1.45,1.5.69.19,1.24.72,1.45,1.4.21-.68.76-1.21,1.45-1.4-.72-.2-1.27-.77-1.45-1.5Z"/>
    <path class="st3" d="M39.5,90.48c-.18.73-.73,1.3-1.45,1.5.69.19,1.24.72,1.45,1.4.21-.68.76-1.21,1.45-1.4-.72-.2-1.27-.77-1.45-1.5Z"/>
    <path class="st3" d="M23.5,90.48c-.18.73-.73,1.3-1.45,1.5.69.19,1.24.72,1.45,1.4.21-.68.76-1.21,1.45-1.4-.72-.2-1.27-.77-1.45-1.5Z"/>
    <path class="st3" d="M23.5,94.62c-.16.53-.53.97-1.01,1.23.41.19.77.48,1.01.86.25-.38.6-.67,1.01-.86-.48-.26-.85-.7-1.01-1.23Z"/>
    <path class="st3" d="M27.5,90.48c-.18.73-.73,1.3-1.45,1.5.69.19,1.24.72,1.45,1.4.21-.68.76-1.21,1.45-1.4-.72-.2-1.27-.77-1.45-1.5Z"/>
    <path class="st3" d="M35.5,90.48c-.18.73-.73,1.3-1.45,1.5.69.19,1.24.72,1.45,1.4.21-.68.76-1.21,1.45-1.4-.72-.2-1.27-.77-1.45-1.5Z"/>
    <path class="st3" d="M31.5,90.48c-.18.73-.73,1.3-1.45,1.5.69.19,1.24.72,1.45,1.4.21-.68.76-1.21,1.45-1.4-.72-.2-1.27-.77-1.45-1.5Z"/>
    <circle class="st1" cx="37.5" cy="2" r=".84"/>
    <path class="st1" d="M33.5,6.84c.46,0,.84-.38.84-.84,0-.42-.32-.76-.73-.82l-.11.14-.76,1.02c.13.29.42.49.76.49Z"/>
    <circle class="st1" cx="37.5" cy="6" r=".84"/>
    <path class="st1" d="M40.66,6c0,.46.38.84.84.84.34,0,.63-.2.76-.49l-.87-1.16h0c-.41.05-.73.39-.73.81Z"/>
    <path class="st1" d="M30.34,10c0-.12-.03-.24-.08-.35l-.87,1.16s.07.02.11.02c.46,0,.84-.38.84-.84Z"/>
    <circle class="st1" cx="33.5" cy="10" r=".84"/>
    <circle class="st1" cx="37.5" cy="10" r=".84"/>
    <circle class="st1" cx="41.5" cy="10" r=".84"/>
    <path class="st1" d="M45.5,10.84s.07-.02.11-.02l-.87-1.16c-.05.11-.08.22-.08.35,0,.46.38.84.84.84Z"/>
    <circle class="st1" cx="29.5" cy="14" r=".85"/>
    <circle class="st1" cx="33.5" cy="14" r=".85"/>
    <circle class="st1" cx="37.5" cy="14" r=".85"/>
    <circle class="st1" cx="41.5" cy="14" r=".85"/>
    <circle class="st1" cx="45.5" cy="14" r=".85"/>
    <circle class="st1" cx="25.5" cy="18" r=".88"/>
    <circle class="st1" cx="29.5" cy="18" r=".88"/>
    <circle class="st1" cx="33.5" cy="18" r=".88"/>
    <circle class="st1" cx="37.5" cy="18" r=".88"/>
    <circle class="st1" cx="41.5" cy="18" r=".88"/>
    <circle class="st1" cx="45.5" cy="18" r=".88"/>
    <circle class="st1" cx="49.5" cy="18" r=".88"/>
    <path class="st1" d="M21.5,22.92c.51,0,.92-.41.92-.92,0-.45-.33-.81-.75-.89l-.65.86-.33.43c.15.3.45.51.81.51Z"/>
    <circle class="st1" cx="25.5" cy="22" r=".92"/>
    <circle class="st1" cx="29.5" cy="22" r=".92"/>
    <circle class="st1" cx="33.5" cy="22" r=".92"/>
    <circle class="st1" cx="37.5" cy="22" r=".92"/>
    <circle class="st1" cx="41.5" cy="22" r=".92"/>
    <circle class="st1" cx="45.5" cy="22" r=".92"/>
    <circle class="st1" cx="49.5" cy="22" r=".92"/>
    <path class="st1" d="M53.5,22.92c.36,0,.66-.21.81-.51l-.97-1.3c-.43.08-.75.44-.75.89,0,.51.41.92.92.92Z"/>
    <path class="st1" d="M18.46,26c0-.16-.05-.31-.12-.45l-1.02,1.37c.06.01.12.04.19.04.53,0,.96-.43.96-.96Z"/>
    <circle class="st1" cx="21.5" cy="26" r=".96"/>
    <circle class="st1" cx="25.5" cy="26" r=".96"/>
    <circle class="st1" cx="29.5" cy="26" r=".96"/>
    <circle class="st1" cx="33.5" cy="26" r=".96"/>
    <circle class="st1" cx="37.5" cy="26" r=".96"/>
    <circle class="st1" cx="41.5" cy="26" r=".96"/>
    <circle class="st1" cx="45.5" cy="26" r=".96"/>
    <circle class="st1" cx="49.5" cy="26" r=".96"/>
    <circle class="st1" cx="53.5" cy="26" r=".96"/>
    <path class="st1" d="M57.5,26.96c.07,0,.13-.03.19-.04l-1.02-1.37c-.07.13-.12.28-.12.45,0,.53.43.96.96.96Z"/>
    <circle class="st1" cx="17.5" cy="30" r="1.01"/>
    <circle class="st1" cx="21.5" cy="30" r="1.01"/>
    <circle class="st1" cx="25.5" cy="30" r="1.01"/>
    <circle class="st1" cx="29.5" cy="30" r="1.01"/>
    <circle class="st1" cx="33.5" cy="30" r="1.01"/>
    <circle class="st1" cx="37.5" cy="30" r="1.01"/>
    <circle class="st1" cx="41.5" cy="30" r="1.01"/>
    <circle class="st1" cx="45.5" cy="30" r="1.01"/>
    <circle class="st1" cx="49.5" cy="30" r="1.01"/>
    <circle class="st1" cx="53.5" cy="30" r="1.01"/>
    <circle class="st1" cx="57.5" cy="30" r="1.01"/>
    <circle class="st1" cx="13.5" cy="34" r="1.06"/>
    <circle class="st1" cx="17.5" cy="34" r="1.06"/>
    <circle class="st1" cx="21.5" cy="34" r="1.06"/>
    <circle class="st1" cx="25.5" cy="34" r="1.06"/>
    <circle class="st1" cx="29.5" cy="34" r="1.06"/>
    <circle class="st1" cx="33.5" cy="34" r="1.06"/>
    <circle class="st1" cx="37.5" cy="34" r="1.06"/>
    <circle class="st1" cx="41.5" cy="34" r="1.06"/>
    <circle class="st1" cx="45.5" cy="34" r="1.06"/>
    <circle class="st1" cx="49.5" cy="34" r="1.06"/>
    <circle class="st1" cx="53.5" cy="34" r="1.06"/>
    <circle class="st1" cx="57.5" cy="34" r="1.06"/>
    <circle class="st1" cx="61.5" cy="34" r="1.06"/>
    <path class="st1" d="M9.5,39.12c.62,0,1.12-.5,1.12-1.12,0-.51-.35-.93-.83-1.06l-.41.55-.81,1.09c.2.32.53.54.93.54Z"/>
    <circle class="st1" cx="13.5" cy="38" r="1.12"/>
    <circle class="st1" cx="17.5" cy="38" r="1.12"/>
    <circle class="st1" cx="21.5" cy="38" r="1.12"/>
    <circle class="st1" cx="25.5" cy="38" r="1.12"/>
    <path class="st1" d="M30.16,38.88c.27-.2.46-.51.46-.88,0-.62-.5-1.12-1.12-1.12s-1.12.5-1.12,1.12c0,.48.31.88.73,1.04l.45-.07.59-.09Z"/>
    <path class="st1" d="M34.62,38c0-.62-.5-1.12-1.12-1.12s-1.12.5-1.12,1.12c0,.19.06.36.14.52l2.05-.31c.01-.07.04-.13.04-.21Z"/>
    <circle class="st1" cx="37.5" cy="38" r="1.12"/>
    <circle class="st1" cx="41.5" cy="38" r="1.12"/>
    <circle class="st1" cx="45.5" cy="38" r="1.12"/>
    <circle class="st1" cx="49.5" cy="38" r="1.12"/>
    <circle class="st1" cx="53.5" cy="38" r="1.12"/>
    <circle class="st1" cx="57.5" cy="38" r="1.12"/>
    <circle class="st1" cx="61.5" cy="38" r="1.12"/>
    <path class="st1" d="M65.5,39.12c.4,0,.74-.22.93-.54l-1.23-1.64c-.47.13-.82.54-.82,1.06,0,.62.5,1.12,1.12,1.12Z"/>
    <path class="st1" d="M6.67,42c0-.21-.07-.41-.17-.58,0,0,0,0,0,0-.35.52-.69,1.05-1.02,1.58-.03.05-.06.09-.09.13,0,0,0,0,0,0,.04,0,.07.02.11.02.65,0,1.17-.52,1.17-1.17Z"/>
    <circle class="st1" cx="9.5" cy="42" r="1.17"/>
    <circle class="st1" cx="13.5" cy="42" r="1.17"/>
    <circle class="st1" cx="17.5" cy="42" r="1.17"/>
    <circle class="st1" cx="21.5" cy="42" r="1.17"/>
    <path class="st1" d="M25.5,40.83c-.65,0-1.17.52-1.17,1.17s.52,1.17,1.17,1.17c.33,0,.62-.13.83-.35v-1.65c-.21-.21-.51-.35-.83-.35Z"/>
    <path class="st1" d="M37.5,43.17c.65,0,1.17-.52,1.17-1.17s-.52-1.17-1.17-1.17c-.58,0-1.04.43-1.13.98v.39c.1.55.55.98,1.13.98Z"/>
    <circle class="st1" cx="41.5" cy="42" r="1.17"/>
    <circle class="st1" cx="45.5" cy="42" r="1.17"/>
    <circle class="st1" cx="49.5" cy="42" r="1.17"/>
    <circle class="st1" cx="53.5" cy="42" r="1.17"/>
    <circle class="st1" cx="57.5" cy="42" r="1.17"/>
    <circle class="st1" cx="61.5" cy="42" r="1.17"/>
    <circle class="st1" cx="65.5" cy="42" r="1.17"/>
    <path class="st1" d="M69.5,43.17s.06-.01.09-.02c0,0,.01,0,.02,0-.12-.2-.26-.4-.38-.6-.19-.31-.39-.61-.59-.91-.05-.07-.09-.14-.14-.21,0,0,0,0,0,.01-.1.17-.17.36-.17.57,0,.65.52,1.17,1.17,1.17Z"/>
    <circle class="st1" cx="5.5" cy="46" r="1.24"/>
    <circle class="st1" cx="9.5" cy="46" r="1.24"/>
    <circle class="st1" cx="13.5" cy="46" r="1.24"/>
    <circle class="st1" cx="17.5" cy="46" r="1.24"/>
    <circle class="st1" cx="21.5" cy="46" r="1.24"/>
    <path class="st1" d="M25.5,44.76c-.68,0-1.24.55-1.24,1.24s.55,1.24,1.24,1.24c.32,0,.61-.13.83-.33v-1.81c-.22-.2-.51-.33-.83-.33Z"/>
    <path class="st1" d="M37.5,47.24c.68,0,1.24-.55,1.24-1.24s-.55-1.24-1.24-1.24c-.51,0-.94.31-1.13.74v.99c.19.44.62.74,1.13.74Z"/>
    <circle class="st1" cx="41.5" cy="46" r="1.24"/>
    <circle class="st1" cx="45.5" cy="46" r="1.24"/>
    <circle class="st1" cx="49.5" cy="46" r="1.24"/>
    <circle class="st1" cx="53.5" cy="46" r="1.24"/>
    <circle class="st1" cx="57.5" cy="46" r="1.24"/>
    <circle class="st1" cx="61.5" cy="46" r="1.24"/>
    <circle class="st1" cx="65.5" cy="46" r="1.24"/>
    <circle class="st1" cx="69.5" cy="46" r="1.24"/>
    <path class="st1" d="M2.8,50c0-.33-.13-.62-.34-.85,0,0,0,0,0-.01-.03.09-.06.18-.09.27-.23.61-.45,1.23-.64,1.85,0,0,0,0,0,0,.61-.11,1.08-.62,1.08-1.26Z"/>
    <path class="st1" d="M5.5,51.3c.72,0,1.3-.58,1.3-1.3s-.58-1.3-1.3-1.3-1.3.58-1.3,1.3.58,1.3,1.3,1.3Z"/>
    <path class="st1" d="M9.5,51.3c.72,0,1.3-.58,1.3-1.3s-.58-1.3-1.3-1.3-1.3.58-1.3,1.3.58,1.3,1.3,1.3Z"/>
    <path class="st1" d="M13.5,51.3c.72,0,1.3-.58,1.3-1.3s-.58-1.3-1.3-1.3-1.3.58-1.3,1.3.58,1.3,1.3,1.3Z"/>
    <path class="st1" d="M17.5,51.3c.72,0,1.3-.58,1.3-1.3s-.58-1.3-1.3-1.3-1.3.58-1.3,1.3.58,1.3,1.3,1.3Z"/>
    <path class="st1" d="M21.5,51.3c.72,0,1.3-.58,1.3-1.3s-.58-1.3-1.3-1.3-1.3.58-1.3,1.3.58,1.3,1.3,1.3Z"/>
    <path class="st1" d="M25.5,48.7c-.72,0-1.3.58-1.3,1.3s.58,1.3,1.3,1.3c.32,0,.6-.13.83-.32v-1.97c-.23-.19-.51-.32-.83-.32Z"/>
    <path class="st1" d="M49.5,51.3c.72,0,1.3-.58,1.3-1.3s-.58-1.3-1.3-1.3-1.3.58-1.3,1.3.58,1.3,1.3,1.3Z"/>
    <path class="st1" d="M53.5,51.3c.72,0,1.3-.58,1.3-1.3s-.58-1.3-1.3-1.3-1.3.58-1.3,1.3.58,1.3,1.3,1.3Z"/>
    <path class="st1" d="M57.5,51.3c.72,0,1.3-.58,1.3-1.3s-.58-1.3-1.3-1.3-1.3.58-1.3,1.3.58,1.3,1.3,1.3Z"/>
    <path class="st1" d="M61.5,51.3c.72,0,1.3-.58,1.3-1.3s-.58-1.3-1.3-1.3-1.3.58-1.3,1.3.58,1.3,1.3,1.3Z"/>
    <path class="st1" d="M65.5,51.3c.72,0,1.3-.58,1.3-1.3s-.58-1.3-1.3-1.3-1.3.58-1.3,1.3.58,1.3,1.3,1.3Z"/>
    <path class="st1" d="M69.5,51.3c.72,0,1.3-.58,1.3-1.3s-.58-1.3-1.3-1.3-1.3.58-1.3,1.3.58,1.3,1.3,1.3Z"/>
    <path class="st1" d="M73.28,51.26h0c-.22-.71-.47-1.42-.73-2.11,0,0,0,0,0-.01h0c-.21.23-.34.53-.34.87,0,.64.47,1.15,1.08,1.26Z"/>
    <path class="st1" d="M2.87,54c0-.76-.61-1.37-1.37-1.37-.06,0-.12,0-.17.02,0,0,0,0,0,0-.01.05-.02.1-.04.16-.19.73-.37,1.46-.52,2.2,0,.04-.02.09-.03.13,0,0,0,0,0,0,.22.15.48.23.76.23.76,0,1.37-.61,1.37-1.37Z"/>
    <circle class="st1" cx="5.5" cy="54" r="1.37"/>
    <circle class="st1" cx="9.5" cy="54" r="1.37"/>
    <circle class="st1" cx="13.5" cy="54" r="1.37"/>
    <circle class="st1" cx="17.5" cy="54" r="1.37"/>
    <circle class="st1" cx="21.5" cy="54" r="1.37"/>
    <path class="st1" d="M25.5,52.63c-.76,0-1.37.61-1.37,1.37s.61,1.37,1.37,1.37c.31,0,.6-.11.83-.29v-2.17c-.23-.18-.52-.29-.83-.29Z"/>
    <circle class="st1" cx="49.5" cy="54" r="1.37"/>
    <circle class="st1" cx="53.5" cy="54" r="1.37"/>
    <circle class="st1" cx="57.5" cy="54" r="1.37"/>
    <circle class="st1" cx="61.5" cy="54" r="1.37"/>
    <circle class="st1" cx="65.5" cy="54" r="1.37"/>
    <circle class="st1" cx="69.5" cy="54" r="1.37"/>
    <path class="st1" d="M72.13,54c0,.76.61,1.37,1.37,1.37.28,0,.54-.09.76-.23,0,0,0,0,0,0,0-.04-.02-.08-.03-.13-.15-.74-.33-1.48-.52-2.2-.01-.05-.02-.1-.04-.15,0,0,0,0,0,0-.06,0-.11-.02-.17-.02-.76,0-1.37.61-1.37,1.37Z"/>
    <path class="st1" d="M1.5,59.44c.79,0,1.44-.64,1.44-1.44s-.64-1.44-1.44-1.44c-.44,0-.83.2-1.09.52,0,0,0,0,0,0-.07.5-.14,1.01-.19,1.52,0,0,0,0,0,0,.23.48.72.82,1.29.82Z"/>
    <circle class="st1" cx="5.5" cy="58" r="1.44"/>
    <circle class="st1" cx="9.5" cy="58" r="1.44"/>
    <circle class="st1" cx="13.5" cy="58" r="1.44"/>
    <circle class="st1" cx="17.5" cy="58" r="1.44"/>
    <circle class="st1" cx="21.5" cy="58" r="1.44"/>
    <path class="st1" d="M25.5,56.56c-.79,0-1.44.64-1.44,1.44s.64,1.44,1.44,1.44c.31,0,.6-.1.83-.27v-2.34c-.23-.17-.52-.27-.83-.27Z"/>
    <path class="st1" d="M37.5,59.44c.79,0,1.44-.64,1.44-1.44s-.64-1.44-1.44-1.44c-.46,0-.87.22-1.13.56v1.75c.26.34.67.56,1.13.56Z"/>
    <circle class="st1" cx="41.5" cy="58" r="1.44"/>
    <circle class="st1" cx="45.5" cy="58" r="1.44"/>
    <circle class="st1" cx="49.5" cy="58" r="1.44"/>
    <circle class="st1" cx="53.5" cy="58" r="1.44"/>
    <circle class="st1" cx="57.5" cy="58" r="1.44"/>
    <circle class="st1" cx="61.5" cy="58" r="1.44"/>
    <circle class="st1" cx="65.5" cy="58" r="1.44"/>
    <circle class="st1" cx="69.5" cy="58" r="1.44"/>
    <path class="st1" d="M72.06,58c0,.79.64,1.44,1.44,1.44.57,0,1.06-.34,1.29-.82,0,0,0,0,0,0-.05-.51-.12-1.02-.19-1.52,0,0,0,0,0,0-.26-.31-.65-.52-1.1-.52-.79,0-1.44.64-1.44,1.44Z"/>
    <path class="st1" d="M1.5,63.5c.83,0,1.5-.67,1.5-1.5s-.67-1.5-1.5-1.5c-.77,0-1.39.57-1.48,1.31,0,0,0,0,0,0,0,.05,0,.11,0,.16,0,.05,0,.1,0,.14H0c.06.77.7,1.38,1.49,1.38Z"/>
    <circle class="st1" cx="5.5" cy="62" r="1.5"/>
    <circle class="st1" cx="9.5" cy="62" r="1.5"/>
    <circle class="st1" cx="13.5" cy="62" r="1.5"/>
    <circle class="st1" cx="17.5" cy="62" r="1.5"/>
    <circle class="st1" cx="21.5" cy="62" r="1.5"/>
    <path class="st1" d="M25.5,60.5c-.83,0-1.5.67-1.5,1.5s.67,1.5,1.5,1.5c.31,0,.59-.09.83-.25v-2.5c-.24-.16-.52-.25-.83-.25Z"/>
    <path class="st1" d="M37.5,63.5c.83,0,1.5-.67,1.5-1.5s-.67-1.5-1.5-1.5c-.45,0-.86.21-1.13.52v1.96c.28.32.68.52,1.13.52Z"/>
    <circle class="st1" cx="41.5" cy="62" r="1.5"/>
    <circle class="st1" cx="45.5" cy="62" r="1.5"/>
    <circle class="st1" cx="49.5" cy="62" r="1.5"/>
    <circle class="st1" cx="53.5" cy="62" r="1.5"/>
    <circle class="st1" cx="57.5" cy="62" r="1.5"/>
    <circle class="st1" cx="61.5" cy="62" r="1.5"/>
    <circle class="st1" cx="65.5" cy="62" r="1.5"/>
    <circle class="st1" cx="69.5" cy="62" r="1.5"/>
    <path class="st1" d="M73.5,60.5c-.83,0-1.5.67-1.5,1.5s.67,1.5,1.5,1.5,1.43-.61,1.49-1.38h0c0-.07,0-.14,0-.2,0-.03,0-.07,0-.1-.09-.74-.72-1.32-1.49-1.32Z"/>
    <path class="st1" d="M3.08,66c0-.88-.71-1.58-1.58-1.58-.6,0-1.12.34-1.39.84,0,0,0,0,0,0,.04.58.1,1.16.17,1.73,0,0,0,0,0,0,.29.35.73.59,1.22.59.88,0,1.58-.71,1.58-1.58Z"/>
    <circle class="st1" cx="5.5" cy="66" r="1.58"/>
    <circle class="st1" cx="9.5" cy="66" r="1.58"/>
    <circle class="st1" cx="13.5" cy="66" r="1.58"/>
    <circle class="st1" cx="17.5" cy="66" r="1.58"/>
    <circle class="st1" cx="21.5" cy="66" r="1.58"/>
    <path class="st1" d="M25.5,64.42c-.88,0-1.58.71-1.58,1.58s.71,1.58,1.58,1.58c.31,0,.59-.09.83-.24v-2.69c-.24-.15-.53-.24-.83-.24Z"/>
    <path class="st1" d="M37.5,67.58c.88,0,1.58-.71,1.58-1.58s-.71-1.58-1.58-1.58c-.44,0-.84.18-1.13.48v2.21c.29.29.69.48,1.13.48Z"/>
    <circle class="st1" cx="41.5" cy="66" r="1.58"/>
    <circle class="st1" cx="45.5" cy="66" r="1.58"/>
    <circle class="st1" cx="49.5" cy="66" r="1.58"/>
    <circle class="st1" cx="53.5" cy="66" r="1.58"/>
    <circle class="st1" cx="57.5" cy="66" r="1.58"/>
    <circle class="st1" cx="61.5" cy="66" r="1.58"/>
    <circle class="st1" cx="65.5" cy="66" r="1.58"/>
    <circle class="st1" cx="69.5" cy="66" r="1.58"/>
    <path class="st1" d="M73.5,64.42c-.88,0-1.58.71-1.58,1.58s.71,1.58,1.58,1.58c.49,0,.93-.23,1.22-.58h0s0-.04,0-.07c.07-.55.12-1.11.16-1.68,0,0,0,0,0,0-.27-.5-.79-.84-1.39-.84Z"/>
    <path class="st1" d="M3.16,70c0-.92-.75-1.66-1.66-1.66-.37,0-.71.12-.98.33,0,0,0,0,0,0,0,.04.02.09.02.13.01.07.03.14.04.21.08.48.18.97.28,1.44.03.13.06.26.09.39.06.26.11.52.18.78,0,0,0,0,.01,0,.12.03.24.05.36.05.92,0,1.66-.74,1.66-1.66Z"/>
    <path class="st1" d="M5.5,71.66c.92,0,1.66-.74,1.66-1.66s-.75-1.66-1.66-1.66-1.66.74-1.66,1.66.74,1.66,1.66,1.66Z"/>
    <path class="st1" d="M9.5,71.66c.92,0,1.66-.74,1.66-1.66s-.75-1.66-1.66-1.66-1.66.74-1.66,1.66.74,1.66,1.66,1.66Z"/>
    <path class="st1" d="M13.5,71.66c.92,0,1.66-.74,1.66-1.66s-.75-1.66-1.66-1.66-1.66.74-1.66,1.66.74,1.66,1.66,1.66Z"/>
    <path class="st1" d="M17.5,71.66c.92,0,1.66-.74,1.66-1.66s-.75-1.66-1.66-1.66-1.66.74-1.66,1.66.74,1.66,1.66,1.66Z"/>
    <path class="st1" d="M21.5,71.66c.92,0,1.66-.74,1.66-1.66s-.75-1.66-1.66-1.66-1.66.74-1.66,1.66.74,1.66,1.66,1.66Z"/>
    <path class="st1" d="M26.42,70s0-.04,0-.06c-.03-.44-.05-.89-.06-1.35,0,0,0,0,0,0-.25-.15-.54-.24-.85-.24-.92,0-1.66.74-1.66,1.66s.74,1.66,1.66,1.66c.39,0,.75-.14,1.04-.37h0c-.05-.42-.09-.85-.12-1.29Z"/>
    <path class="st1" d="M37.02,71.59c.15.05.31.08.48.08.92,0,1.66-.74,1.66-1.66s-.75-1.66-1.66-1.66c-.42,0-.79.16-1.08.41.08,1.09.28,2.03.6,2.84,0,0,0,0,0,0Z"/>
    <path class="st1" d="M41.5,71.66c.92,0,1.66-.74,1.66-1.66s-.75-1.66-1.66-1.66-1.66.74-1.66,1.66.74,1.66,1.66,1.66Z"/>
    <path class="st1" d="M45.5,71.66c.92,0,1.66-.74,1.66-1.66s-.75-1.66-1.66-1.66-1.66.74-1.66,1.66.74,1.66,1.66,1.66Z"/>
    <path class="st1" d="M49.5,71.66c.92,0,1.66-.74,1.66-1.66s-.75-1.66-1.66-1.66-1.66.74-1.66,1.66.74,1.66,1.66,1.66Z"/>
    <path class="st1" d="M53.5,71.66c.92,0,1.66-.74,1.66-1.66s-.75-1.66-1.66-1.66-1.66.74-1.66,1.66.74,1.66,1.66,1.66Z"/>
    <path class="st1" d="M57.5,71.66c.92,0,1.66-.74,1.66-1.66s-.75-1.66-1.66-1.66-1.66.74-1.66,1.66.74,1.66,1.66,1.66Z"/>
    <path class="st1" d="M61.5,71.66c.92,0,1.66-.74,1.66-1.66s-.75-1.66-1.66-1.66-1.66.74-1.66,1.66.74,1.66,1.66,1.66Z"/>
    <path class="st1" d="M65.5,71.66c.92,0,1.66-.74,1.66-1.66s-.75-1.66-1.66-1.66-1.66.74-1.66,1.66.74,1.66,1.66,1.66Z"/>
    <path class="st1" d="M69.5,71.66c.92,0,1.66-.74,1.66-1.66s-.75-1.66-1.66-1.66-1.66.74-1.66,1.66.74,1.66,1.66,1.66Z"/>
    <path class="st1" d="M71.84,70c0,.92.74,1.66,1.66,1.66.13,0,.26-.02.38-.05,0-.02,0-.03.01-.05.12-.49.23-.98.33-1.48.04-.2.07-.39.11-.59.05-.28.11-.55.15-.83,0,0,0,0,0,0-.28-.2-.61-.33-.98-.33-.92,0-1.66.74-1.66,1.66Z"/>
    <path class="st1" d="M3.23,74c0-.96-.77-1.73-1.73-1.73-.07,0-.13.01-.2.02,0,0,0,.01,0,.02.15.54.3,1.07.47,1.6,0,.03.02.05.03.08.16.51.34,1.02.52,1.52,0,0,0,0,.01-.01.53-.3.89-.85.89-1.5Z"/>
    <circle class="st1" cx="5.5" cy="74" r="1.73"/>
    <circle class="st1" cx="9.5" cy="74" r="1.73"/>
    <circle class="st1" cx="13.5" cy="74" r="1.73"/>
    <circle class="st1" cx="17.5" cy="74" r="1.73"/>
    <circle class="st1" cx="21.5" cy="74" r="1.73"/>
    <path class="st1" d="M26.8,72.98s-.02-.09-.03-.14c-.32-.34-.77-.56-1.27-.56-.96,0-1.73.77-1.73,1.73s.77,1.73,1.73,1.73c.79,0,1.45-.53,1.65-1.25-.07-.25-.15-.5-.22-.77-.05-.24-.1-.49-.14-.73Z"/>
    <path class="st1" d="M37.42,72.43c.09.16.2.31.32.44.02.02.04.04.06.06.11.12.22.23.35.33.01,0,.02.02.04.03.14.11.29.21.46.3,0,0,0,0,0,0,.17.09.36.18.56.25-.08-.88-.81-1.57-1.71-1.57-.05,0-.1.01-.14.01.01.02.03.05.04.08,0,.02.02.05.03.07Z"/>
    <path class="st1" d="M40.72,74.17c.3.03.62.05.96.05,0,0,.01,0,.02,0,.2,0,.38,0,.56-.01.07,0,.14,0,.21-.01.14,0,.27-.02.4-.03.12-.01.24-.03.36-.04,0-.04.01-.08.01-.11,0-.96-.77-1.73-1.73-1.73s-1.73.77-1.73,1.73c0,0,0,0,0,0,.26.06.53.11.82.14.04,0,.08.01.13.02Z"/>
    <path class="st1" d="M44.38,73.93c.48-.09.94-.19,1.38-.3.44-.12.87-.25,1.28-.4-.29-.56-.86-.95-1.54-.95-.96,0-1.73.77-1.73,1.73,0,.01,0,.02,0,.03.18-.03.36-.06.58-.1,0,0,.02,0,.03,0Z"/>
    <circle class="st1" cx="49.5" cy="74" r="1.73"/>
    <circle class="st1" cx="53.5" cy="74" r="1.73"/>
    <circle class="st1" cx="57.5" cy="74" r="1.73"/>
    <circle class="st1" cx="61.5" cy="74" r="1.73"/>
    <circle class="st1" cx="65.5" cy="74" r="1.73"/>
    <circle class="st1" cx="69.5" cy="74" r="1.73"/>
    <path class="st1" d="M71.77,74c0,.65.36,1.21.89,1.5,0,0,0,0,.01.01.19-.51.36-1.02.53-1.54,0-.02.02-.04.02-.07.17-.53.33-1.07.47-1.61,0,0,0,0,0,0-.07,0-.13-.02-.2-.02-.96,0-1.73.77-1.73,1.73Z"/>
    <path class="st1" d="M2.82,76.76c.15.37.32.74.48,1.11,0,0,0,0,0,0-.03-.4-.19-.76-.44-1.04-.02-.02-.02-.04-.04-.06Z"/>
    <circle class="st1" cx="5.5" cy="78" r="1.81"/>
    <circle class="st1" cx="9.5" cy="78" r="1.81"/>
    <circle class="st1" cx="13.5" cy="78" r="1.81"/>
    <circle class="st1" cx="17.5" cy="78" r="1.81"/>
    <circle class="st1" cx="21.5" cy="78" r="1.81"/>
    <circle class="st1" cx="25.5" cy="78" r="1.81"/>
    <path class="st1" d="M29.08,78.28c-.2-.24-.38-.5-.55-.77-.14-.22-.28-.45-.41-.68-.27.32-.44.72-.44,1.17,0,1,.81,1.81,1.81,1.81.33,0,.63-.09.89-.24-.22-.18-.44-.38-.65-.57-.23-.22-.46-.46-.66-.71Z"/>
    <path class="st1" d="M48.48,79.49c.29.2.64.32,1.02.32,1,0,1.81-.81,1.81-1.81s-.81-1.81-1.81-1.81c-.61,0-1.15.31-1.48.77l.18.99.28,1.54Z"/>
    <circle class="st1" cx="53.5" cy="78" r="1.81"/>
    <circle class="st1" cx="57.5" cy="78" r="1.81"/>
    <circle class="st1" cx="61.5" cy="78" r="1.81"/>
    <circle class="st1" cx="65.5" cy="78" r="1.81"/>
    <circle class="st1" cx="69.5" cy="78" r="1.81"/>
    <path class="st1" d="M71.7,77.87c.17-.37.33-.74.48-1.11-.02.02-.02.04-.04.06-.25.29-.41.64-.44,1.04,0,0,0,0,0,0Z"/>
    <path class="st1" d="M7.4,82c0-1.05-.85-1.9-1.9-1.9-.35,0-.68.1-.97.27,0,0,0,0,0,0,.3.56.62,1.11.95,1.64h0c.33.54.67,1.07,1.03,1.59h0c.54-.34.9-.93.9-1.61Z"/>
    <circle class="st1" cx="9.5" cy="82" r="1.9"/>
    <circle class="st1" cx="13.5" cy="82" r="1.9"/>
    <circle class="st1" cx="17.5" cy="82" r="1.9"/>
    <circle class="st1" cx="21.5" cy="82" r="1.9"/>
    <circle class="st1" cx="25.5" cy="82" r="1.9"/>
    <circle class="st1" cx="29.5" cy="82" r="1.9"/>
    <path class="st1" d="M33.24,81.25s-.04-.01-.06-.02c-.18-.07-.34-.16-.51-.24-.19-.09-.38-.17-.56-.27-.31.34-.51.79-.51,1.28,0,1.05.85,1.9,1.9,1.9s1.9-.85,1.9-1.9c0-.04,0-.08-.01-.13-.38-.08-.75-.17-1.11-.27-.37-.1-.72-.22-1.05-.36Z"/>
    <path class="st1" d="M37.38,82.17c-.62-.06-1.21-.14-1.77-.25,0,0,0,0,0,0,0,.03,0,.05,0,.08,0,1.05.85,1.9,1.9,1.9.96,0,1.74-.71,1.88-1.63-.69,0-1.35-.04-1.98-.1,0,0-.01,0-.02,0Z"/>
    <path class="st1" d="M41.4,82.23c-.16,0-.33.02-.5.02-.4.02-.82.03-1.25.03,0,0,0,0-.01,0,0,0,0,0,0,0,.14.92.92,1.62,1.88,1.62,1.04,0,1.88-.83,1.9-1.87-.45.06-.92.11-1.42.15-.19.02-.39.03-.58.04Z"/>
    <path class="st1" d="M46.4,81.34c-.51.15-1.02.3-1.57.44h0c-.38.09-.79.17-1.22.24h0c0,1.05.85,1.89,1.9,1.89s1.9-.85,1.9-1.9c0-.33-.09-.63-.24-.9h0c-.25.08-.51.16-.77.24Z"/>
    <path class="st1" d="M49.5,80.1c-.32,0-.61.08-.87.22l.04.24c-.19.08-.41.15-.62.22-.28.33-.46.75-.46,1.22,0,1.05.85,1.9,1.9,1.9s1.9-.85,1.9-1.9-.85-1.9-1.9-1.9Z"/>
    <circle class="st1" cx="53.5" cy="82" r="1.9"/>
    <circle class="st1" cx="57.5" cy="82" r="1.9"/>
    <circle class="st1" cx="61.5" cy="82" r="1.9"/>
    <circle class="st1" cx="65.5" cy="82" r="1.9"/>
    <path class="st1" d="M67.6,82c0,.68.36,1.27.9,1.61h0c.35-.52.7-1.05,1.03-1.58h0c.33-.55.65-1.09.95-1.65,0,0,0,0,0,0-.28-.17-.61-.27-.97-.27-1.05,0-1.9.85-1.9,1.9Z"/>
    <path class="st1" d="M11.48,86c0-1.1-.89-1.98-1.98-1.98-.82,0-1.52.5-1.82,1.21,0,0,0,0,0,0,.71.93,1.47,1.84,2.27,2.7,0,0,0,0,0,0,.88-.2,1.54-.99,1.54-1.93Z"/>
    <path class="st1" d="M65.5,84.02c-1.1,0-1.98.89-1.98,1.98,0,.94.66,1.73,1.54,1.93,0,0,0,0,0,0,.4-.43.78-.87,1.16-1.31,0,0,0,0,0-.01.38-.45.75-.91,1.1-1.38-.3-.71-1-1.21-1.82-1.21Z"/>
    <path class="st1" d="M10.03,88.01s0,0,0,0c.03.03.06.06.08.08.44.47.88.92,1.34,1.36.01.01.03.03.04.04,0,0,0,0,0,0-.18-.73-.74-1.29-1.47-1.49Z"/>
    <path class="st1" d="M61.73,87.96c.99-.12,1.75-.94,1.75-1.96,0-1.1-.89-1.98-1.98-1.98s-1.98.89-1.98,1.98c0,1.02.77,1.84,1.75,1.96-.87.1-1.57.72-1.77,1.56-.2-.83-.9-1.46-1.77-1.56.99-.12,1.75-.94,1.75-1.96,0-1.1-.89-1.98-1.98-1.98s-1.98.89-1.98,1.98c0,1.02.77,1.84,1.75,1.96-.87.1-1.57.72-1.77,1.56-.2-.83-.9-1.46-1.77-1.56.99-.12,1.75-.94,1.75-1.96,0-1.1-.89-1.98-1.98-1.98s-1.98.89-1.98,1.98c0,1.02.77,1.84,1.75,1.96-.87.1-1.57.72-1.77,1.56-.2-.83-.9-1.46-1.77-1.56.99-.12,1.75-.94,1.75-1.96,0-1.1-.89-1.98-1.98-1.98s-1.98.89-1.98,1.98c0,1.02.77,1.84,1.75,1.96-.87.1-1.57.72-1.77,1.56-.2-.83-.9-1.46-1.77-1.56.99-.12,1.75-.94,1.75-1.96,0-1.1-.89-1.98-1.98-1.98s-1.98.89-1.98,1.98c0,1.02.77,1.84,1.75,1.96-.87.1-1.57.72-1.77,1.56-.2-.83-.9-1.46-1.77-1.56.99-.12,1.75-.94,1.75-1.96,0-1.1-.89-1.98-1.98-1.98s-1.98.89-1.98,1.98c0,1.02.77,1.84,1.75,1.96-.87.1-1.57.72-1.77,1.56-.2-.83-.9-1.46-1.77-1.56.99-.12,1.75-.94,1.75-1.96,0-1.1-.89-1.98-1.98-1.98s-1.98.89-1.98,1.98c0,1.02.77,1.84,1.75,1.96-.87.1-1.57.72-1.77,1.56-.2-.83-.9-1.46-1.77-1.56.99-.12,1.75-.94,1.75-1.96,0-1.1-.89-1.98-1.98-1.98s-1.98.89-1.98,1.98c0,1.02.77,1.84,1.75,1.96-.87.1-1.57.72-1.77,1.56-.2-.83-.9-1.46-1.77-1.56.99-.12,1.75-.94,1.75-1.96,0-1.1-.89-1.98-1.98-1.98s-1.98.89-1.98,1.98c0,1.02.77,1.84,1.75,1.96-.87.1-1.57.72-1.77,1.56-.2-.83-.9-1.46-1.77-1.56.99-.12,1.75-.94,1.75-1.96,0-1.1-.89-1.98-1.98-1.98s-1.98.89-1.98,1.98c0,1.02.77,1.84,1.75,1.96-.87.1-1.57.72-1.77,1.56-.2-.83-.9-1.46-1.77-1.56.99-.12,1.75-.94,1.75-1.96,0-1.1-.89-1.98-1.98-1.98s-1.98.89-1.98,1.98c0,1.02.77,1.84,1.75,1.96-.87.1-1.57.72-1.77,1.56-.2-.83-.9-1.46-1.77-1.56.99-.12,1.75-.94,1.75-1.96,0-1.1-.89-1.98-1.98-1.98s-1.98.89-1.98,1.98c0,1.02.77,1.84,1.75,1.96-.87.1-1.57.72-1.77,1.56-.2-.83-.9-1.46-1.77-1.56.99-.12,1.75-.94,1.75-1.96,0-1.1-.89-1.98-1.98-1.98s-1.98.89-1.98,1.98c0,1.02.77,1.84,1.75,1.96-.86.1-1.56.72-1.77,1.55,0,0,0,0,0,0,.11.11.24.21.35.32.31.29.62.59.95.87.19.17.39.33.59.49.27.23.55.46.83.69.01.01.03.02.04.04,0,0,0,0,0,0,.62-.24,1.08-.78,1.24-1.43.18.73.73,1.3,1.45,1.5-.55.15-1.01.52-1.28,1t0,0c.55.4,1.12.78,1.69,1.14.02.02.05.03.07.05.57.37,1.16.72,1.76,1.05,0,0,0,0,0,0,.13-.18.23-.39.3-.61.16.53.52.96,1,1.22-.03.01-.05.03-.08.04,2.54,1.3,5.25,2.32,8.08,3.02.09.02.18.04.27.06.57.14,1.15.26,1.73.37.18.03.37.07.55.1.5.09,1,.16,1.51.23.22.03.44.06.65.08.5.06,1.01.1,1.52.14.21.02.41.04.62.05.71.04,1.42.06,2.14.06s1.43-.02,2.14-.06c.21-.01.41-.03.62-.05.51-.04,1.02-.08,1.52-.14.22-.02.44-.05.65-.08.51-.07,1.01-.14,1.51-.23.19-.03.37-.06.55-.1.58-.11,1.16-.23,1.73-.37.09-.02.18-.04.27-.06,2.83-.7,5.54-1.72,8.08-3.02-.03-.01-.05-.03-.08-.04.48-.26.84-.69,1-1.22.07.22.17.43.3.61,0,0,0,0,0,0,.6-.33,1.18-.68,1.75-1.05l.08-.05c.57-.37,1.14-.75,1.69-1.14h0c-.27-.49-.73-.85-1.28-1,.72-.2,1.27-.77,1.45-1.5.16.65.62,1.19,1.24,1.43,0,0,0,0,0,0,.01-.01.03-.02.04-.04.28-.22.55-.46.83-.69.19-.16.39-.32.59-.49.32-.28.63-.58.95-.87.12-.11.24-.21.35-.32,0,0,0,0,0,0-.2-.83-.9-1.45-1.77-1.55ZM19.5,93.38c-.21-.68-.76-1.21-1.45-1.4.72-.2,1.27-.77,1.45-1.5.18.73.73,1.3,1.45,1.5-.69.19-1.24.72-1.45,1.4ZM23.5,96.71c-.25-.38-.6-.67-1.01-.86.48-.26.85-.7,1.01-1.23.16.53.53.97,1.01,1.23-.41.19-.77.48-1.01.86ZM23.5,93.38c-.21-.68-.76-1.21-1.45-1.4.72-.2,1.27-.77,1.45-1.5.18.73.73,1.3,1.45,1.5-.69.19-1.24.72-1.45,1.4ZM27.5,96.71c-.25-.38-.6-.67-1.01-.86.48-.26.85-.7,1.01-1.23.16.53.53.97,1.01,1.23-.41.19-.77.48-1.01.86ZM27.5,93.38c-.21-.68-.76-1.21-1.45-1.4.72-.2,1.27-.77,1.45-1.5.18.73.73,1.3,1.45,1.5-.69.19-1.24.72-1.45,1.4ZM31.5,96.71c-.25-.38-.6-.67-1.01-.86.48-.26.85-.7,1.01-1.23.16.53.53.97,1.01,1.23-.41.19-.77.48-1.01.86ZM31.5,93.38c-.21-.68-.76-1.21-1.45-1.4.72-.2,1.27-.77,1.45-1.5.18.73.73,1.3,1.45,1.5-.69.19-1.24.72-1.45,1.4ZM35.5,96.71c-.25-.38-.6-.67-1.01-.86.48-.26.85-.7,1.01-1.23.16.53.53.97,1.01,1.23-.41.19-.77.48-1.01.86ZM35.5,93.38c-.21-.68-.76-1.21-1.45-1.4.72-.2,1.27-.77,1.45-1.5.18.73.73,1.3,1.45,1.5-.69.19-1.24.72-1.45,1.4ZM39.5,96.71c-.25-.38-.6-.67-1.01-.86.48-.26.85-.7,1.01-1.23.16.53.53.97,1.01,1.23-.41.19-.77.48-1.01.86ZM39.5,93.38c-.21-.68-.76-1.21-1.45-1.4.72-.2,1.27-.77,1.45-1.5.18.73.73,1.3,1.45,1.5-.69.19-1.24.72-1.45,1.4ZM43.5,96.71c-.25-.38-.6-.67-1.01-.86.48-.26.85-.7,1.01-1.23.16.53.53.97,1.01,1.23-.41.19-.77.48-1.01.86ZM43.5,93.38c-.21-.68-.76-1.21-1.45-1.4.72-.2,1.27-.77,1.45-1.5.18.73.73,1.3,1.45,1.5-.69.19-1.24.72-1.45,1.4ZM47.5,96.71c-.25-.38-.6-.67-1.01-.86.48-.26.85-.7,1.01-1.23.16.53.53.97,1.01,1.23-.41.19-.77.48-1.01.86ZM47.5,93.38c-.21-.68-.76-1.21-1.45-1.4.72-.2,1.27-.77,1.45-1.5.18.73.73,1.3,1.45,1.5-.69.19-1.24.72-1.45,1.4ZM51.5,96.71c-.25-.38-.6-.67-1.01-.86.48-.26.85-.7,1.01-1.23.16.53.53.97,1.01,1.23-.41.19-.77.48-1.01.86ZM51.5,93.38c-.21-.68-.76-1.21-1.45-1.4.72-.2,1.27-.77,1.45-1.5.18.73.73,1.3,1.45,1.5-.69.19-1.24.72-1.45,1.4ZM55.5,93.38c-.21-.68-.76-1.21-1.45-1.4.72-.2,1.27-.77,1.45-1.5.18.73.73,1.3,1.45,1.5-.69.19-1.24.72-1.45,1.4Z"/>
    <path class="st1" d="M63.51,89.5s0,0,0,0c.01-.01.03-.03.04-.04.46-.44.91-.9,1.34-1.36.03-.03.06-.06.08-.08,0,0,0,0,0,0-.72.19-1.28.76-1.47,1.49Z"/>
  </g>
</svg>